<svg xmlns="http://www.w3.org/2000/svg" width="27.367" height="27.367" viewBox="0 0 27.367 27.367"><defs><style>.a{fill:#fff;}</style></defs><path class="a" d="M21.683,11.25a3.592,3.592,0,1,1-3.592,3.592,3.591,3.591,0,0,1,3.592-3.592m0,15.394c5.089,0,10.434,2.489,10.434,3.592v1.881H11.25V30.236c0-1.1,5.345-3.592,10.434-3.592M21.683,8a6.842,6.842,0,1,0,6.842,6.842A6.84,6.84,0,0,0,21.683,8Zm0,15.394C17.125,23.394,8,25.677,8,30.236v5.131H35.367V30.236C35.367,25.677,26.242,23.394,21.683,23.394Z" transform="translate(-8 -8)"/></svg>