<svg xmlns="http://www.w3.org/2000/svg" width="33.333" height="27.272" viewBox="0 0 33.333 27.272"><defs><style>.a{fill:#fff;}</style></defs><path class="a" d="M23.663,15.769a1.894,1.894,0,1,1-1.894-1.894A1.894,1.894,0,0,1,23.663,15.769Z" transform="translate(-1.315 -4.405)"/><path class="a" d="M16.163,15.769a1.894,1.894,0,1,1-1.894-1.894A1.894,1.894,0,0,1,16.163,15.769Z" transform="translate(-1.39 -4.405)"/><path class="a" d="M34.742,19.136a5.545,5.545,0,0,0,0-2,6.072,6.072,0,0,0-4.258-4.8,13.809,13.809,0,0,0-3.318-4.409A13.622,13.622,0,0,0,5.848,12.333a6.051,6.051,0,0,0-4.258,4.8,5.545,5.545,0,0,0,0,2,6.072,6.072,0,0,0,4.258,4.8,13.6,13.6,0,0,0,3.288,4.379,13.55,13.55,0,0,0,18.075,0A13.766,13.766,0,0,0,30.5,23.939a6.058,6.058,0,0,0,4.242-4.8Zm-5.97,2.03a4.318,4.318,0,0,1-.439-.045,10.861,10.861,0,0,1-1.3,2.818,10.58,10.58,0,0,1-17.727,0A10.86,10.86,0,0,1,8,21.121a4.318,4.318,0,0,1-.439.045,3.03,3.03,0,1,1,0-6.06A4.318,4.318,0,0,1,8,15.151a10.86,10.86,0,0,1,1.3-2.818,10.58,10.58,0,0,1,17.727,0,10.86,10.86,0,0,1,1.3,2.818,4.319,4.319,0,0,1,.439-.045,3.03,3.03,0,1,1,0,6.06Zm-17.424,0a7.386,7.386,0,0,0,13.636,0Z" transform="translate(-1.5 -4.5)"/></svg>