<svg xmlns="http://www.w3.org/2000/svg" width="24" height="24" viewBox="0 0 24 24"><defs><style>.a{fill:#fff;fill-rule:evenodd;}</style></defs><path class="a" d="M271.842,15A3.091,3.091,0,0,0,275,12a3.162,3.162,0,0,0-6.316,0A3.091,3.091,0,0,0,271.842,15Zm-6.474-9.6a9.057,9.057,0,0,1,3.789-1.95L270.421,0h3.158l1.263,3.45a11.217,11.217,0,0,1,3.789,1.95l3.789-.75L284,7.35l-2.526,2.7a8.136,8.136,0,0,1,.158,1.95c0,.6-.158,1.35-.158,1.95L284,16.65l-1.579,2.7-3.789-.75a9.057,9.057,0,0,1-3.789,1.95L273.579,24h-3.158l-1.263-3.45a11.217,11.217,0,0,1-3.789-1.95l-3.789.75L260,16.65l2.526-2.7a8.136,8.136,0,0,1-.158-1.95c0-.6.158-1.35.158-1.95L260,7.35l1.579-2.7Z" transform="translate(-260)"/></svg>