<svg xmlns="http://www.w3.org/2000/svg" xmlns:xlink="http://www.w3.org/1999/xlink" viewBox="0 0 100 100"><defs><style>.cls-1{fill:url(#linear-gradient);}.cls-2{fill:#59c5ef;}.cls-3{fill:#525c6b;}.cls-4{fill:#2ba0bf;}.cls-5{fill:#7a8e9b;}.cls-6{fill:#ffbd66;}.cls-7{fill:#e2e2e2;}.cls-8{fill:#fff;}</style><linearGradient id="linear-gradient" y1="50" x2="100" y2="50" gradientUnits="userSpaceOnUse"><stop offset="0" stop-color="#2476af"/><stop offset="1" stop-color="#029e92"/></linearGradient></defs><title>aoc_logo</title><g id="Layer_1" data-name="Layer 1"><rect class="cls-1" width="100" height="100"/></g><g id="Layer_2" data-name="Layer 2"><path class="cls-2" d="M53.08,30.71H20.41a4.83,4.83,0,0,0-4.69,4.95v39.6H57.77V35.66A4.82,4.82,0,0,0,53.08,30.71Z"/><path class="cls-3" d="M15.72,75.26V79a2.41,2.41,0,0,0,2.35,2.49H88.41A2.41,2.41,0,0,0,90.76,79v-3.7Z"/><path class="cls-4" d="M88.77,59.52l-9.59-4.88a4.16,4.16,0,0,1-1-.71H57.77V75.26h33V62.86A3.77,3.77,0,0,0,88.77,59.52Z"/><path class="cls-5" d="M41.06,78.36a7.86,7.86,0,0,1-7.62,8,8.06,8.06,0,0,1,0-16.1A7.83,7.83,0,0,1,41.06,78.36Z"/><rect class="cls-3" x="62.34" y="58.48" width="7.02" height="3.1"/><path class="cls-6" d="M42,30.71H31.5l0-4.92A3.62,3.62,0,0,1,35,22.05h3.47A3.62,3.62,0,0,1,42,25.79Z"/><rect class="cls-6" x="34.99" y="10.84" width="3.51" height="6.98"/><polygon class="cls-6" points="45.76 21.2 43.36 18.46 48.2 13.72 50.6 16.43 45.76 21.2"/><polygon class="cls-6" points="27.74 21.2 22.89 16.43 25.29 13.72 30.13 18.46 27.74 21.2"/><path class="cls-7" d="M36.38,78.36a2.93,2.93,0,1,1-2.94-3.1A3,3,0,0,1,36.38,78.36Z"/><path class="cls-5" d="M78.78,78.36a7.64,7.64,0,1,1-7.63-8A7.87,7.87,0,0,1,78.78,78.36Z"/><path class="cls-7" d="M74.09,78.36a2.94,2.94,0,1,1-2.94-3.1A3,3,0,0,1,74.09,78.36Z"/><path class="cls-8" d="M45,48.55h-5.2V43.07A1.81,1.81,0,0,0,38,41.21H35.45a1.81,1.81,0,0,0-1.73,1.86v5.48H28.51a1.79,1.79,0,0,0-1.74,1.82v2.74A1.79,1.79,0,0,0,28.51,55h5.21v5.48a1.78,1.78,0,0,0,1.73,1.82H38a1.78,1.78,0,0,0,1.74-1.82V55H45a1.79,1.79,0,0,0,1.74-1.85V50.37A1.79,1.79,0,0,0,45,48.55Z"/><path class="cls-7" d="M57.77,53.93H78.14A5.39,5.39,0,0,1,77,52.36L71.37,40.29H57.77Z"/><path class="cls-4" d="M67.05,37.3H57.77v3h13.6l-.1-.22A4.66,4.66,0,0,0,67.05,37.3Z"/></g></svg>