<svg id="Layer_1" data-name="Layer 1" xmlns="http://www.w3.org/2000/svg" xmlns:xlink="http://www.w3.org/1999/xlink" viewBox="0 0 100 100"><defs><style>.cls-1{fill:url(#linear-gradient);}.cls-2{fill:#6d6e71;}.cls-3{fill:#fff;}.cls-4{fill:#525c6b;}.cls-5{fill:#f87670;}</style><linearGradient id="linear-gradient" y1="50" x2="100" y2="50" gradientUnits="userSpaceOnUse"><stop offset="0" stop-color="#2476af"/><stop offset="1" stop-color="#029e92"/></linearGradient></defs><title>er_logo</title><rect class="cls-1" width="100" height="100"/><path class="cls-2" d="M35.38,24.91l-1.06.59a2.05,2.05,0,0,0-.74,2.77L36.31,33l4.56-2.62-2.73-4.71A2,2,0,0,0,35.38,24.91Z"/><path class="cls-2" d="M68.71,25.5l-1-.59a2,2,0,0,0-2.77.74l-2.73,4.71L66.73,33l2.73-4.71A2,2,0,0,0,68.71,25.5Z"/><rect class="cls-2" x="43.51" y="14.23" width="16.04" height="8.62"/><circle class="cls-3" cx="51.52" cy="53.9" r="26.31"/><path class="cls-4" d="M52.79,26.1V22.85H50.25V26.1a27.83,27.83,0,1,0,2.54,0ZM65,74.7l-1.28-2.23-2.19,1.28L62.8,76a24.65,24.65,0,0,1-10,2.68V76.07H50.25v2.59a24.69,24.69,0,0,1-10-2.68l1.28-2.23-2.19-1.28L38.05,74.7a25,25,0,0,1-7.33-7.33L33,66.09l-1.26-2.18L29.45,65.2a24.49,24.49,0,0,1-2.69-10.05h2.59v-2.5H26.76a24.44,24.44,0,0,1,2.69-10l2.24,1.31L33,41.71l-2.23-1.28a25,25,0,0,1,7.33-7.33l1.28,2.24,2.19-1.29-1.28-2.2a24.25,24.25,0,0,1,10-2.71v2.59h2.54V29.14a24.21,24.21,0,0,1,10,2.71l-1.28,2.2,2.19,1.29L65,33.1a25.14,25.14,0,0,1,7.34,7.33l-2.25,1.28,1.27,2.21,2.25-1.31a24.92,24.92,0,0,1,2.7,10H73.71v2.5H76.3A25,25,0,0,1,73.6,65.2l-2.25-1.29-1.27,2.18,2.25,1.28A25.14,25.14,0,0,1,65,74.7Z"/><path class="cls-5" d="M66.2,49.91a7.88,7.88,0,0,0-14.67-4,7.88,7.88,0,0,0-14.67,4c0,9.3,14.67,18.24,14.67,18.24S66.2,59.21,66.2,49.91Z"/><path class="cls-4" d="M50.51,62.75a1.25,1.25,0,0,1-1.12-.69L46.2,55.72l-1.73,3.1a1.29,1.29,0,0,1-1.1.65H35.15V56.94h7.47l2.55-4.53a1.21,1.21,0,0,1,1.13-.66,1.25,1.25,0,0,1,1.11.69l3.05,6.11,4.65-10.22a1.24,1.24,0,0,1,1.19-.75,1.21,1.21,0,0,1,1.14.78l3.41,8.58h7v2.53H60a1.28,1.28,0,0,1-1.18-.8l-2.64-6.62L51.67,62a1.26,1.26,0,0,1-1.13.74Z"/></svg>