<svg xmlns="http://www.w3.org/2000/svg" viewBox="0 0 165.37 42.22"><defs><style>.cls-1,.cls-11,.cls-2,.cls-3,.cls-5,.cls-6,.cls-7,.cls-8,.cls-9{fill:none;stroke-linecap:round;stroke-linejoin:round;}.cls-1,.cls-2,.cls-3,.cls-5{stroke:#58585a;optical:0.1;}.cls-1,.cls-6,.cls-8{stroke-width:2.5px;}.cls-3,.cls-9{stroke-width:2.56px;}.cls-4{fill:#58585a;optical:0.1;}.cls-11,.cls-5{stroke-width:2.52px;}.cls-11,.cls-6,.cls-9{stroke:#fff;}.cls-7,.cls-8{stroke:#18a79d;}.cls-10{fill:#fff;}</style></defs><title>fpm_1</title><g id="Layer_2" data-name="Layer 2"><g id="Layer_1-2" data-name="Layer 1"><path class="cls-1" d="M23.21,2.24h7.12C34,2.24,37,4.63,37,7.58V9.15c0,3-3,5.35-6.68,5.35H23.21v8.38"/><line class="cls-2" x1="76.66" y1="12.53" x2="87.05" y2="12.53"/><polyline class="cls-1" points="97.65 1.99 97.65 21.98 111.1 21.98"/><line class="cls-1" x1="119.43" y1="2.3" x2="119.43" y2="22.29"/><polyline class="cls-1" points="129.6 22.16 129.6 2.06 142.8 2.06"/><line class="cls-1" x1="130.36" y1="11.52" x2="138.06" y2="11.52"/><line class="cls-1" x1="151.17" y1="1.75" x2="164.12" y2="1.75"/><polyline class="cls-1" points="150.98 1.75 150.98 11.58 150.98 22.23 164.12 22.23"/><line class="cls-1" x1="151.74" y1="11.09" x2="161.17" y2="11.09"/><polyline class="cls-3" points="44.72 22.74 44.72 2.23 53.77 11.16 62.45 2.23"/><line class="cls-3" x1="62.98" y1="8.86" x2="62.98" y2="22.74"/><path class="cls-4" d="M23.09,35.27v1.66h2.85V38.1H23.09v2.3H21.67V34.1h4.64v1.17Z"/><path class="cls-4" d="M30,35.48v1.3l-.3,0a1.18,1.18,0,0,0-1.26,1.35V40.4H27.09V35.55H28.4v.64A1.9,1.9,0,0,1,30,35.48Z"/><path class="cls-4" d="M35.39,38.37H31.82a1.26,1.26,0,0,0,1.35,1,1.62,1.62,0,0,0,1.19-.47l.73.81a2.46,2.46,0,0,1-2,.78A2.48,2.48,0,0,1,30.44,38,2.44,2.44,0,0,1,33,35.48,2.37,2.37,0,0,1,35.42,38C35.42,38.1,35.4,38.26,35.39,38.37Zm-3.59-.82h2.33a1.18,1.18,0,0,0-2.33,0Z"/><path class="cls-4" d="M35.87,40l.46-1a3.15,3.15,0,0,0,1.64.47c.63,0,.87-.17.87-.44,0-.8-2.85,0-2.85-1.92,0-.92.81-1.57,2.18-1.57a3.82,3.82,0,0,1,1.82.43l-.46,1a2.73,2.73,0,0,0-1.36-.35c-.61,0-.87.19-.87.45,0,.82,2.85,0,2.85,1.93,0,.9-.82,1.54-2.23,1.54A4,4,0,0,1,35.87,40Z"/><path class="cls-4" d="M45.81,37.63V40.4H44.45V37.84c0-.78-.36-1.14-1-1.14s-1.13.41-1.13,1.3v2.4H41V33.72h1.37v2.34a2,2,0,0,1,1.5-.58A1.88,1.88,0,0,1,45.81,37.63Z"/><path class="cls-4" d="M55,36.38c0,1.41-1,2.28-2.66,2.28H51.05V40.4H49.63V34.1h2.66C53.93,34.1,55,35,55,36.38Zm-1.43,0c0-.69-.44-1.1-1.31-1.1H51.05v2.19h1.16C53.08,37.47,53.52,37.07,53.52,36.38Z"/><path class="cls-4" d="M56,33.72h1.37V40.4H56Z"/><path class="cls-4" d="M62.77,37.63V40.4H61.49v-.6a1.55,1.55,0,0,1-1.44.67c-1.11,0-1.76-.63-1.76-1.47s.58-1.45,2-1.45H61.4c0-.6-.35-.95-1.09-.95a2.24,2.24,0,0,0-1.36.45l-.49-1a3.56,3.56,0,0,1,2-.59C61.94,35.48,62.77,36.17,62.77,37.63ZM61.4,38.87v-.5h-.94c-.64,0-.84.25-.84.57s.29.58.77.58A1,1,0,0,0,61.4,38.87Z"/><path class="cls-4" d="M68.83,37.63V40.4H67.46V37.84c0-.78-.35-1.14-.95-1.14s-1.13.41-1.13,1.3v2.4H64V35.55h1.3v.57a2.06,2.06,0,0,1,1.57-.64A1.88,1.88,0,0,1,68.83,37.63Z"/><path class="cls-4" d="M73.11,40.16a1.89,1.89,0,0,1-1.11.31,1.58,1.58,0,0,1-1.77-1.74v-2h-.72V35.66h.72V34.48H71.6v1.18h1.18v1.08H71.6v2c0,.42.22.64.59.64a.89.89,0,0,0,.55-.18Z"/><path class="cls-4" d="M82.05,40.4V36.62l-1.81,3.11h-.64l-1.79-3v3.7H76.46V34.1h1.18L79.94,38,82.2,34.1h1.17v6.3Z"/><path class="cls-4" d="M88.92,37.63V40.4H87.64v-.6a1.55,1.55,0,0,1-1.44.67c-1.11,0-1.76-.63-1.76-1.47s.58-1.45,2-1.45h1.09c0-.6-.35-.95-1.09-.95a2.22,2.22,0,0,0-1.36.45l-.49-1a3.56,3.56,0,0,1,2-.59C88.09,35.48,88.92,36.17,88.92,37.63Zm-1.37,1.24v-.5h-.94c-.64,0-.84.25-.84.57s.29.58.77.58A1,1,0,0,0,87.55,38.87Z"/><path class="cls-4" d="M95,37.63V40.4H93.61V37.84c0-.78-.35-1.14-1-1.14s-1.14.41-1.14,1.3v2.4H90.16V35.55h1.3v.57A2.05,2.05,0,0,1,93,35.48,1.88,1.88,0,0,1,95,37.63Z"/><path class="cls-4" d="M100.39,37.63V40.4H99.11v-.6a1.53,1.53,0,0,1-1.44.67c-1.1,0-1.76-.63-1.76-1.47s.59-1.45,2-1.45H99c0-.6-.35-.95-1.08-.95a2.22,2.22,0,0,0-1.36.45l-.49-1a3.52,3.52,0,0,1,2-.59C99.56,35.48,100.39,36.17,100.39,37.63ZM99,38.87v-.5h-.93c-.64,0-.85.25-.85.57s.29.58.78.58A1,1,0,0,0,99,38.87Z"/><path class="cls-4" d="M106.55,35.55v4a2.34,2.34,0,0,1-2.65,2.63,3.81,3.81,0,0,1-2.31-.67l.54-1a2.72,2.72,0,0,0,1.67.55c1,0,1.38-.45,1.38-1.32v-.21a1.9,1.9,0,0,1-1.49.6,2.34,2.34,0,1,1,0-4.68,1.87,1.87,0,0,1,1.56.7v-.63Zm-1.35,2.27A1.24,1.24,0,1,0,104,39,1.16,1.16,0,0,0,105.2,37.82Z"/><path class="cls-4" d="M112.42,38.37h-3.57a1.26,1.26,0,0,0,1.35,1,1.58,1.58,0,0,0,1.18-.47l.73.81a2.44,2.44,0,0,1-2,.78A2.47,2.47,0,0,1,107.47,38a2.44,2.44,0,0,1,2.52-2.5A2.37,2.37,0,0,1,112.45,38C112.45,38.1,112.43,38.26,112.42,38.37Zm-3.59-.82h2.33a1.18,1.18,0,0,0-2.33,0Z"/><path class="cls-4" d="M121.33,37.63V40.4H120V37.84c0-.78-.34-1.14-.89-1.14s-1,.4-1,1.27V40.4h-1.36V37.84c0-.78-.33-1.14-.9-1.14s-1,.4-1,1.27V40.4h-1.37V35.55h1.3v.56a1.92,1.92,0,0,1,1.49-.63,1.75,1.75,0,0,1,1.55.79,2.11,2.11,0,0,1,1.7-.79C120.53,35.48,121.33,36.15,121.33,37.63Z"/><path class="cls-4" d="M127.21,38.37h-3.57a1.26,1.26,0,0,0,1.35,1,1.58,1.58,0,0,0,1.18-.47l.73.81a2.6,2.6,0,1,1-2.12-4.21A2.37,2.37,0,0,1,127.24,38C127.24,38.1,127.22,38.26,127.21,38.37Zm-3.59-.82H126a1.13,1.13,0,0,0-1.16-1A1.12,1.12,0,0,0,123.62,37.55Z"/><path class="cls-4" d="M133,37.63V40.4H131.6V37.84c0-.78-.35-1.14-.95-1.14s-1.13.41-1.13,1.3v2.4h-1.37V35.55h1.3v.57a2.08,2.08,0,0,1,1.57-.64A1.88,1.88,0,0,1,133,37.63Z"/><path class="cls-4" d="M137.25,40.16a1.89,1.89,0,0,1-1.11.31,1.57,1.57,0,0,1-1.76-1.74v-2h-.73V35.66h.73V34.48h1.36v1.18h1.18v1.08h-1.18v2c0,.42.22.64.59.64a.87.87,0,0,0,.55-.18Z"/><polyline class="cls-5" points="1.51 22.88 1.51 2.51 14.71 2.51"/><line class="cls-1" x1="5.02" y1="14.75" x2="9.78" y2="14.75"/><path class="cls-6" d="M23,1.74h7.12c3.69,0,6.68,2.39,6.68,5.34V8.65c0,3-3,5.35-6.68,5.35H23v8.38"/><line class="cls-7" x1="76.41" y1="12.03" x2="86.8" y2="12.03"/><polyline class="cls-8" points="97.4 1.49 97.4 21.48 110.85 21.48"/><line class="cls-8" x1="119.18" y1="1.8" x2="119.18" y2="21.79"/><polyline class="cls-8" points="129.35 21.66 129.35 1.56 142.55 1.56"/><line class="cls-8" x1="130.11" y1="11.02" x2="137.81" y2="11.02"/><line class="cls-8" x1="150.92" y1="1.25" x2="163.87" y2="1.25"/><polyline class="cls-8" points="150.73 1.25 150.73 11.08 150.73 21.73 163.87 21.73"/><line class="cls-8" x1="151.49" y1="10.59" x2="160.92" y2="10.59"/><polyline class="cls-9" points="44.47 22.24 44.47 1.73 53.52 10.66 62.2 1.73"/><line class="cls-9" x1="62.73" y1="8.36" x2="62.73" y2="22.24"/><path class="cls-10" d="M22.84,34.77v1.66h2.85V37.6H22.84v2.3H21.42V33.6h4.64v1.17Z"/><path class="cls-10" d="M29.77,35v1.3l-.3,0a1.18,1.18,0,0,0-1.26,1.35V39.9H26.84V35.05h1.31v.64A1.9,1.9,0,0,1,29.77,35Z"/><path class="cls-10" d="M35.14,37.87H31.57a1.26,1.26,0,0,0,1.35,1,1.62,1.62,0,0,0,1.19-.47l.73.81a2.46,2.46,0,0,1-2,.78,2.48,2.48,0,0,1-2.7-2.49A2.44,2.44,0,0,1,32.71,35a2.37,2.37,0,0,1,2.46,2.51C35.17,37.6,35.15,37.76,35.14,37.87Zm-3.59-.82h2.33a1.18,1.18,0,0,0-2.33,0Z"/><path class="cls-10" d="M35.62,39.45l.46-1a3.15,3.15,0,0,0,1.64.47c.63,0,.87-.17.87-.44,0-.8-2.85,0-2.85-1.92,0-.92.81-1.57,2.18-1.57a3.82,3.82,0,0,1,1.82.43l-.46,1a2.73,2.73,0,0,0-1.36-.35c-.61,0-.87.19-.87.45,0,.82,2.85,0,2.85,1.93,0,.9-.82,1.54-2.23,1.54A4,4,0,0,1,35.62,39.45Z"/><path class="cls-10" d="M45.56,37.13V39.9H44.2V37.34c0-.78-.36-1.14-1-1.14s-1.13.41-1.13,1.3v2.4H40.74V33.22h1.37v2.34a2,2,0,0,1,1.5-.58A1.88,1.88,0,0,1,45.56,37.13Z"/><path class="cls-10" d="M54.7,35.88c0,1.41-1,2.28-2.66,2.28H50.8V39.9H49.38V33.6H52C53.68,33.6,54.7,34.47,54.7,35.88Zm-1.43,0c0-.69-.44-1.1-1.31-1.1H50.8V37H52C52.83,37,53.27,36.57,53.27,35.88Z"/><path class="cls-10" d="M55.7,33.22h1.37V39.9H55.7Z"/><path class="cls-10" d="M62.52,37.13V39.9H61.24v-.6A1.55,1.55,0,0,1,59.8,40C58.69,40,58,39.34,58,38.5s.58-1.45,2-1.45h1.09c0-.6-.35-.95-1.09-.95a2.24,2.24,0,0,0-1.36.45l-.49-1a3.56,3.56,0,0,1,2-.59C61.69,35,62.52,35.67,62.52,37.13Zm-1.37,1.24v-.5h-.94c-.64,0-.84.25-.84.57s.29.58.77.58A1,1,0,0,0,61.15,38.37Z"/><path class="cls-10" d="M68.58,37.13V39.9H67.21V37.34c0-.78-.35-1.14-.95-1.14s-1.13.41-1.13,1.3v2.4H63.76V35.05h1.3v.57A2.06,2.06,0,0,1,66.63,35,1.88,1.88,0,0,1,68.58,37.13Z"/><path class="cls-10" d="M72.86,39.66a1.89,1.89,0,0,1-1.11.31A1.58,1.58,0,0,1,70,38.23v-2h-.72V35.16H70V34h1.37v1.18h1.18v1.08H71.35v2c0,.42.22.64.59.64a.89.89,0,0,0,.55-.18Z"/><path class="cls-10" d="M81.8,39.9V36.12L80,39.23h-.64l-1.79-3v3.7H76.21V33.6h1.18l2.3,3.91L82,33.6h1.17v6.3Z"/><path class="cls-10" d="M88.67,37.13V39.9H87.39v-.6A1.55,1.55,0,0,1,86,40c-1.11,0-1.76-.63-1.76-1.47s.58-1.45,2-1.45H87.3c0-.6-.35-.95-1.09-.95a2.22,2.22,0,0,0-1.36.45l-.49-1a3.56,3.56,0,0,1,2-.59C87.84,35,88.67,35.67,88.67,37.13ZM87.3,38.37v-.5h-.94c-.64,0-.84.25-.84.57s.29.58.77.58A1,1,0,0,0,87.3,38.37Z"/><path class="cls-10" d="M94.73,37.13V39.9H93.36V37.34c0-.78-.35-1.14-1-1.14s-1.14.41-1.14,1.3v2.4H89.91V35.05h1.3v.57A2.05,2.05,0,0,1,92.77,35,1.88,1.88,0,0,1,94.73,37.13Z"/><path class="cls-10" d="M100.14,37.13V39.9H98.86v-.6a1.53,1.53,0,0,1-1.44.67c-1.1,0-1.76-.63-1.76-1.47s.59-1.45,2-1.45h1.08c0-.6-.35-.95-1.08-.95a2.22,2.22,0,0,0-1.36.45l-.49-1a3.52,3.52,0,0,1,2-.59C99.31,35,100.14,35.67,100.14,37.13Zm-1.37,1.24v-.5h-.93c-.64,0-.85.25-.85.57s.29.58.78.58A1,1,0,0,0,98.77,38.37Z"/><path class="cls-10" d="M106.3,35.05v4a2.34,2.34,0,0,1-2.65,2.63,3.81,3.81,0,0,1-2.31-.67l.54-1a2.72,2.72,0,0,0,1.67.55c1,0,1.38-.45,1.38-1.32v-.21a1.9,1.9,0,0,1-1.49.6,2.34,2.34,0,1,1,0-4.68,1.87,1.87,0,0,1,1.56.7v-.63ZM105,37.32a1.24,1.24,0,1,0-1.24,1.19A1.16,1.16,0,0,0,105,37.32Z"/><path class="cls-10" d="M112.17,37.87H108.6a1.26,1.26,0,0,0,1.35,1,1.58,1.58,0,0,0,1.18-.47l.73.81a2.44,2.44,0,0,1-2,.78,2.47,2.47,0,0,1-2.69-2.49,2.44,2.44,0,0,1,2.52-2.5,2.37,2.37,0,0,1,2.46,2.51C112.2,37.6,112.18,37.76,112.17,37.87Zm-3.59-.82h2.33a1.18,1.18,0,0,0-2.33,0Z"/><path class="cls-10" d="M121.08,37.13V39.9h-1.37V37.34c0-.78-.34-1.14-.89-1.14s-1,.4-1,1.27V39.9h-1.36V37.34c0-.78-.33-1.14-.9-1.14s-1,.4-1,1.27V39.9h-1.37V35.05h1.3v.56A1.92,1.92,0,0,1,115.9,35a1.75,1.75,0,0,1,1.55.79,2.11,2.11,0,0,1,1.7-.79C120.28,35,121.08,35.65,121.08,37.13Z"/><path class="cls-10" d="M127,37.87h-3.57a1.26,1.26,0,0,0,1.35,1,1.58,1.58,0,0,0,1.18-.47l.73.81A2.6,2.6,0,1,1,124.53,35,2.37,2.37,0,0,1,127,37.49C127,37.6,127,37.76,127,37.87Zm-3.59-.82h2.33a1.13,1.13,0,0,0-1.16-1A1.12,1.12,0,0,0,123.37,37.05Z"/><path class="cls-10" d="M132.72,37.13V39.9h-1.37V37.34c0-.78-.35-1.14-.95-1.14s-1.13.41-1.13,1.3v2.4H127.9V35.05h1.3v.57a2.08,2.08,0,0,1,1.57-.64A1.88,1.88,0,0,1,132.72,37.13Z"/><path class="cls-10" d="M137,39.66a1.89,1.89,0,0,1-1.11.31,1.57,1.57,0,0,1-1.76-1.74v-2h-.73V35.16h.73V34h1.36v1.18h1.18v1.08h-1.18v2c0,.42.22.64.59.64a.87.87,0,0,0,.55-.18Z"/><polyline class="cls-11" points="1.26 22.38 1.26 2.01 14.46 2.01"/><line class="cls-6" x1="4.77" y1="14.25" x2="9.53" y2="14.25"/></g></g></svg>