<svg id="Layer_1" data-name="Layer 1" xmlns="http://www.w3.org/2000/svg" viewBox="0 0 97.45 81.46"><defs><style>.cls-1{fill:#2d1407;}.cls-2{opacity:0.08;}.cls-3{fill:#f4933b;}.cls-4{fill:#fff;}.cls-5{fill:#8bc646;}.cls-6{fill:#81b530;}.cls-7{fill:#83bc39;}</style></defs><title>kalechan</title><path class="cls-1" d="M65.35,73.88a10.89,10.89,0,0,0,4.48,1.34A7.79,7.79,0,0,0,74.34,74a7.49,7.49,0,0,0,1.6-1.37,1.28,1.28,0,0,1-.23-1.13.87.87,0,0,1,.14-.27,1,1,0,0,1,.41-.44,2.41,2.41,0,0,0,0-.38,5,5,0,0,1,.07-1c0-.26.1-.71.34-.87a.41.41,0,0,1,.42.07.63.63,0,0,1,.21.43,2.39,2.39,0,0,1-.14,1c0,.1-.06.19-.1.29l.18-.26a4.38,4.38,0,0,1,.52-.62c.2-.19.71-.55.93-.19a.43.43,0,0,1,0,.4l-.06.11a2.72,2.72,0,0,1-.49.57l-.19.18-.41.32a1.64,1.64,0,0,1,.35.3,1.3,1.3,0,0,1-.77,2,1.14,1.14,0,0,1-.75-.06A8.26,8.26,0,0,1,72.7,75.4a8.62,8.62,0,0,1-5,0,13.09,13.09,0,0,1-2.64-1.05A.28.28,0,0,1,65.35,73.88Z" transform="translate(-1.35 -17.67)"/><path class="cls-1" d="M37.05,76.92a11,11,0,0,1-4.23,2,7.63,7.63,0,0,1-4.64-.51,8.17,8.17,0,0,1-1.78-1.11,1.32,1.32,0,0,0,.05-1.16.83.83,0,0,0-.18-.25,1,1,0,0,0-.47-.37,2.2,2.2,0,0,1-.05-.37,4.73,4.73,0,0,0-.22-1c-.09-.25-.2-.69-.46-.81a.38.38,0,0,0-.41.13.67.67,0,0,0-.14.45,2.37,2.37,0,0,0,.27.93c.05.09.09.18.14.26-.06-.08-.13-.15-.2-.23a5.25,5.25,0,0,0-.62-.53c-.22-.16-.78-.44-.94,0a.44.44,0,0,0,.06.4l.07.1a2.7,2.7,0,0,0,.58.49l.21.15.45.25a1.31,1.31,0,0,0-.3.36,1.29,1.29,0,0,0,1.05,1.83,1.16,1.16,0,0,0,.73-.18,8.36,8.36,0,0,0,4,1.83,8.83,8.83,0,0,0,4.94-.71,13.69,13.69,0,0,0,2.45-1.44A.28.28,0,0,0,37.05,76.92Z" transform="translate(-1.35 -17.67)"/><g class="cls-2"><path class="cls-1" d="M42,99.12h0a.19.19,0,0,1-.09,0c-.07-.08-.07-.08,1.27-.81l.9-.49-1.38.47a12.65,12.65,0,0,1-2.35.74.19.19,0,0,1-.09,0c-.07-.07-.07-.07,1.2-.78l.85-.48-1.46.5A14,14,0,0,1,38.4,99a.19.19,0,0,1-.09,0c-.07-.07-.08-.08,1.2-.81l.56-.32-1.17.4a10.4,10.4,0,0,1-2.25.7.19.19,0,0,1-.09,0c-.07-.07-.07-.07,1-.73l.55-.33c-.26.08-.56.18-.82.28a8.34,8.34,0,0,1-1.84.57.25.25,0,0,1-.09,0c0-.05,0-.05.61-.65l.24-.21-.14,0c-.52.18-.52.18-.59.17a.19.19,0,0,1-.09,0s0-.08,0-.1h0l.45-.15c.61-.21.61-.21.68-.2a.19.19,0,0,1,.09,0s0,0-.5.53l-.39.36L37.19,98c1.48-.51,1.49-.51,1.58-.5l.08,0c.07.07.07.07-1.05.74l-.59.35,1.55-.52c1.83-.63,1.85-.63,1.94-.61a.12.12,0,0,1,.09,0c.07.07.07.07-1.09.74l-.74.43,1.73-.59a10,10,0,0,1,2.21-.7.19.19,0,0,1,.09,0c.08.07.08.07-1.36.88l-.66.37,1.57-.53a9.94,9.94,0,0,1,2.18-.69.1.1,0,0,1,.08,0c.08.07.08.07-1.45.91l-.71.39,1.54-.52a10.75,10.75,0,0,1,2.16-.69.19.19,0,0,1,.09,0c.06.06.07.07-.88.69l-.58.39,1.35-.46a10.09,10.09,0,0,1,2.27-.71.12.12,0,0,1,.09,0c.07.07.07.07-1.08.8l-.51.33,1.6-.54a8.68,8.68,0,0,1,2-.64.15.15,0,0,1,.09,0c.07.07.07.07-1.15.76l-.77.44,1.46-.5a11.46,11.46,0,0,1,2.42-.76.1.1,0,0,1,.08,0c.07.06.07.06-.84.64l-.62.41,1.48-.5A9.6,9.6,0,0,1,55,97.39a.19.19,0,0,1,.09,0c.07.07.07.07-1,.73l-.72.44L55.18,98c1.93-.67,2-.69,2.12-.67a.13.13,0,0,1,.09,0c.08.07.08.07-1.41.87l-.78.42,1.33-.45a10.74,10.74,0,0,1,2.36-.74.19.19,0,0,1,.09,0c.07.07.07.08-1.23.81L57,98.7l1.84-.63a12.51,12.51,0,0,1,2.44-.77.25.25,0,0,1,.09,0c.07.07.07.07-1.14.76l-.72.41L61.16,98a10.36,10.36,0,0,1,2.11-.67.19.19,0,0,1,.09,0c.08.07.08.08-1.37.85-.28.14-.6.31-.86.46l1.27-.44a12.07,12.07,0,0,1,2.46-.77.13.13,0,0,1,.09,0c.07.06.07.06-1,.77l-.5.33,1.15-.4a8.94,8.94,0,0,1,2.09-.65.15.15,0,0,1,.09,0c.06.06.07.07-1,.76l-.37.25,1-.35a8.44,8.44,0,0,1,2-.61.13.13,0,0,1,.09,0c.06.06.07.06-1,.74l-.44.3.74-.25a7.11,7.11,0,0,1,1.58-.49.13.13,0,0,1,.09,0s0,.08,0,.1h0c-.14,0-.88.28-1.43.47-1.34.45-1.34.45-1.43.44a.2.2,0,0,1-.08,0c-.06-.06-.06-.06.87-.68l.58-.39-1.33.45c-1.59.55-1.6.54-1.69.53a.19.19,0,0,1-.09,0c-.06-.07-.06-.07.8-.63l.62-.41-1.47.49a8.39,8.39,0,0,1-1.83.58.19.19,0,0,1-.09,0c-.06-.06-.06-.06.93-.7l.65-.42-1.83.61a10.8,10.8,0,0,1-2.1.67.19.19,0,0,1-.09,0c-.08-.07-.08-.08,1.45-.89l.78-.42-1.27.44a11.58,11.58,0,0,1-2.37.74.15.15,0,0,1-.09,0c-.07-.07-.07-.07,1.2-.79l.62-.35L59,98.2a12,12,0,0,1-2.58.82.13.13,0,0,1-.09,0c-.07-.07-.08-.07,1.24-.81l.73-.41c-.45.14-1.07.36-1.62.55a10.34,10.34,0,0,1-2.16.68.25.25,0,0,1-.09,0c-.07-.07-.07-.07,1.38-.85l.81-.44-1.29.44a12,12,0,0,1-2.5.79.19.19,0,0,1-.09,0c-.07-.07-.07-.07,1.14-.8l.58-.35L53,98.2c-1.92.66-2,.68-2.12.66a.19.19,0,0,1-.09,0c-.07-.07-.07-.07,1-.77l.45-.29-1.77.6a10.47,10.47,0,0,1-2.21.7.25.25,0,0,1-.09,0c-.07-.07-.07-.08,1.28-.84l.6-.35-1.23.42a12.14,12.14,0,0,1-2.27.72s-.07,0-.08,0-.07-.06.91-.69l.7-.44-1.63.55c-1.8.62-1.89.64-2,.62a.19.19,0,0,1-.08,0c-.07-.07-.07-.07,1-.75l.51-.33-1.53.52A15.66,15.66,0,0,1,42,99.12Zm27.21-1.07,0,0Zm0,0Zm-33.55-.19Zm0,0,0,0Z" transform="translate(-1.35 -17.67)"/></g><path class="cls-1" d="M55.37,82.68a51.35,51.35,0,0,0,8.19,8.67c.24.22.54-.19.29-.41a50.49,50.49,0,0,1-8.08-8.58c-.19-.27-.58.06-.4.32Z" transform="translate(-1.35 -17.67)"/><path class="cls-1" d="M55.35,82.69a49.43,49.43,0,0,0,7.57,8.13l.48.43c.09.08.18.19.31.19a.29.29,0,0,0,.25-.35.46.46,0,0,0-.19-.26l-.55-.49-1-.93a53.38,53.38,0,0,1-4-4c-.71-.8-1.4-1.64-2-2.5-.14-.18-.26-.4-.41-.57a.27.27,0,0,0-.25-.1.3.3,0,0,0-.19.45,0,0,0,0,0,0,0,.24.24,0,0,1,.27-.36c.08,0,.19.22.24.29s.25.35.38.52.49.64.74.95c.47.59,1,1.16,1.47,1.72,1.06,1.18,2.19,2.29,3.35,3.37.57.54,1.16,1.06,1.74,1.59a1.64,1.64,0,0,1,.25.21.24.24,0,0,1-.22.41c-.08,0-.19-.17-.25-.22l-.24-.21-.89-.8c-1.17-1.06-2.31-2.16-3.39-3.3a37.06,37.06,0,0,1-3.45-4.17S55.33,82.67,55.35,82.69Z" transform="translate(-1.35 -17.67)"/><path class="cls-3" d="M64.14,90.17l-.11.12c-.34.35-.91.78-.64,1.31l.06.07-.05,0a.81.81,0,0,1-.2-.21.86.86,0,0,1-.1-.16A1.83,1.83,0,0,1,63,91a.53.53,0,0,1,.1-.12l.08-.07a.4.4,0,0,0,.1-.36.11.11,0,0,1,0-.08c.12-.17.32-.31.45-.47a2.44,2.44,0,0,1,1.34-1,1.27,1.27,0,0,1,.64,0l0,0C65.19,88.88,64.49,89.74,64.14,90.17Z" transform="translate(-1.35 -17.67)"/><path class="cls-3" d="M64.87,90.87l-.12.14a1.67,1.67,0,0,1-1.24.7l-.06,0-.06-.07c-.27-.53.3-1,.64-1.31l.11-.12c.35-.43,1-1.29,1.6-1.2S65.4,90.24,64.87,90.87Z" transform="translate(-1.35 -17.67)"/><path class="cls-3" d="M63.64,90.32c0-.17-.1-.32-.29-.3a.23.23,0,0,0-.21.15c0,.08,0,.18,0,.27a.34.34,0,0,1-.1.24c-.06.07-.16.08-.23.15s0,.22.11.25a.46.46,0,0,0,.44-.14A.79.79,0,0,0,63.64,90.32Z" transform="translate(-1.35 -17.67)"/><path class="cls-4" d="M64,90.33a1.91,1.91,0,0,0,.69.92c.14.1.29-.11.16-.22a1.56,1.56,0,0,1-.58-.74c0-.17-.31-.12-.27,0Z" transform="translate(-1.35 -17.67)"/><path class="cls-4" d="M64.45,89.82a1.85,1.85,0,0,0,.69.92c.13.1.29-.11.15-.22a1.56,1.56,0,0,1-.58-.74c0-.17-.31-.13-.26,0Z" transform="translate(-1.35 -17.67)"/><path class="cls-1" d="M63.45,91.67l.06,0a1.67,1.67,0,0,0,1.24-.7l.12-.14c.53-.63,1.29-1.66.87-1.9a.71.71,0,0,1,.54.46.13.13,0,0,1,0,.06,1.7,1.7,0,0,1-.36.85,5.13,5.13,0,0,1-1.43,1.54.78.78,0,0,1-.57.15A.79.79,0,0,1,63.45,91.67Z" transform="translate(-1.35 -17.67)"/><path class="cls-1" d="M48.6,82.14a50.41,50.41,0,0,1-4.74,10.8c-.15.28.26.57.42.29a51.06,51.06,0,0,0,4.8-10.92c.09-.31-.39-.48-.48-.17Z" transform="translate(-1.35 -17.67)"/><path class="cls-1" d="M48.57,82.14A49.46,49.46,0,0,1,44,92.59c-.1.2-.33.46-.14.67a.26.26,0,0,0,.39,0,3,3,0,0,0,.33-.58l.33-.62c.23-.42.45-.83.66-1.25a52.47,52.47,0,0,0,2.34-5c.39-1,.74-2,1-3,.07-.22.27-.58,0-.76a.27.27,0,0,0-.43.13s0,0,0,0A.23.23,0,0,1,49,82c.13.08.1.23.08.36s-.12.39-.17.58c-.12.39-.25.78-.38,1.17-.25.74-.53,1.47-.83,2.2-.62,1.5-1.33,3-2.08,4.42q-.54,1-1.11,2.07a1.35,1.35,0,0,1-.16.29c-.07.1,0,.07-.18.12s-.18.06-.23-.06.14-.51.25-.69c.19-.35.37-.7.56-1,.75-1.41,1.46-2.83,2.1-4.29a37.13,37.13,0,0,0,1.82-5S48.58,82.11,48.57,82.14Z" transform="translate(-1.35 -17.67)"/><path class="cls-3" d="M43.35,92.32l.14.07c.44.22,1.12.44,1,1,0,0,0,.06,0,.09l0,0A1.26,1.26,0,0,0,44.7,93a1.4,1.4,0,0,0,0-.35.5.5,0,0,0-.12-.08l-.11,0c-.15-.06-.17-.21-.21-.31a.18.18,0,0,0-.05-.07c-.17-.11-.4-.18-.58-.29a2.53,2.53,0,0,0-1.58-.45,1.31,1.31,0,0,0-.59.26.08.08,0,0,0,0,0C41.92,91.46,42.88,92,43.35,92.32Z" transform="translate(-1.35 -17.67)"/><path class="cls-3" d="M42.9,93.22l.16.1a1.66,1.66,0,0,0,1.4.24l0-.06s0-.06,0-.09c.08-.58-.6-.8-1-1l-.14-.07c-.47-.29-1.43-.86-1.91-.59C41.12,92.09,42.18,92.8,42.9,93.22Z" transform="translate(-1.35 -17.67)"/><path class="cls-3" d="M43.87,92.3c0-.17,0-.34.18-.39a.24.24,0,0,1,.24.07c.05.07,0,.18.06.26a.34.34,0,0,0,.17.2c.09,0,.19,0,.28.06s.06.21,0,.28a.43.43,0,0,1-.45,0A.78.78,0,0,1,43.87,92.3Z" transform="translate(-1.35 -17.67)"/><path class="cls-4" d="M43.31,92.46a1.51,1.51,0,0,1-.3.89c-.09.15.13.3.22.16a1.88,1.88,0,0,0,.34-1.1c0-.17-.28-.12-.26,0Z" transform="translate(-1.35 -17.67)"/><path class="cls-4" d="M42.68,92.14a1.57,1.57,0,0,1-.3.9c-.09.14.13.29.22.15a1.88,1.88,0,0,0,.34-1.1c0-.17-.27-.12-.26,0Z" transform="translate(-1.35 -17.67)"/><path class="cls-1" d="M44.51,93.5l0,.06a1.66,1.66,0,0,1-1.4-.24l-.16-.1c-.72-.42-1.78-1.13-1.46-1.49a.71.71,0,0,0-.36.61.14.14,0,0,0,0,.06c.08.28.4.51.62.68a5.1,5.1,0,0,0,1.86,1,.86.86,0,0,0,.59,0A.84.84,0,0,0,44.51,93.5Z" transform="translate(-1.35 -17.67)"/><path class="cls-5" d="M56.28,79.18a4.21,4.21,0,0,0,.34-2,47.4,47.4,0,0,1-.53-7.05,21.45,21.45,0,0,1,.44-4.42,27.89,27.89,0,0,1,1.22-4.19C60.21,55,64.68,49.75,68.64,43.81q.81-1.23,1.56-2.49c3-5.19,6.31-12.18,2.51-17.75a14,14,0,0,0-1.5-1.84c-.27-.28-.56-.55-.85-.8a5.93,5.93,0,0,0-1.69-1.08,9.45,9.45,0,0,0-1.08-.26c-.36-.06-.73-.11-1.1-.15-2,.07-3.53-1.26-5.33-1.68a4.21,4.21,0,0,0-1.22-.08,5.62,5.62,0,0,0-1.21.23c-1.88.56-3.36,2.25-5.21,2.43a9.25,9.25,0,0,0-7,4.77c-.18.34-.34.68-.49,1a9.9,9.9,0,0,0-.39,1.08c-.11.25-.21.51-.3.77s-.18.51-.26.77a22.73,22.73,0,0,0-.73,3.37A73.36,73.36,0,0,0,44,42.6q0,1.56-.06,3.12c0,1-.07,2.06-.13,3.09l-.21,4.74c-.06,1.58-.12,3.16-.15,4.74,0,1.39,0,2.78.15,4.16a38.35,38.35,0,0,0,2.88,12.08,12,12,0,0,0,4.31,5.38C53,81.16,55.62,81.12,56.28,79.18Z" transform="translate(-1.35 -17.67)"/><path class="cls-6" d="M64.1,85c.24-.48.43-1,.63-1.48a40.84,40.84,0,0,1,8.72-13.86,47.07,47.07,0,0,1,7.4-6.26c1.49-1,3-2,4.56-3C89,58,93.2,56.12,96,52.74a13.48,13.48,0,0,0,2.8-8.41c.06-3.41-.3-5-3.29-6.52-1.75-.92-1.35-2.28-1.74-3.88-.64-2.6-4-3.14-6.27-3.3a13.14,13.14,0,0,0-7.64,1.86,40.25,40.25,0,0,0-5.4,3.89A45.85,45.85,0,0,0,69.77,41c-1.17,1.37-2.29,2.77-3.35,4.22s-2,2.94-3,4.48a47.94,47.94,0,0,0-7.09,24.69c0,1.35-.08,2.8,0,4.24,0,.36,0,.72.07,1.08a9.73,9.73,0,0,1-.06,2.59q-.08.34-.18.72c-.07.24-.15.48-.22.73a2.4,2.4,0,0,0,1.21,3.3c2,.74,5,.62,6.34-1.14A5.58,5.58,0,0,0,64.1,85Z" transform="translate(-1.35 -17.67)"/><path class="cls-6" d="M50.81,78.06a11.35,11.35,0,0,0,1.58-3.84c.67-5,1.52-9.74,2.61-14.42.36-1.56.76-3.1,1.17-4.64.37-1.15.74-2.31,1.08-3.49a31,31,0,0,0,.81-16.36c-.07-.31-.16-.63-.25-1s-.2-.64-.32-1c-1-4-3.41-7.68-7.78-8.56a1.52,1.52,0,0,1-.81-.42,5.15,5.15,0,0,1-.65-.67c-.39-.49-.73-1-1.17-1.55a5.37,5.37,0,0,0-.72-.71,6.24,6.24,0,0,0-1-.79,5.74,5.74,0,0,0-3.63-1l-1,.09a32.22,32.22,0,0,1-5.06-.32c-2.06-.2-4,.12-5.39,1.77a13.22,13.22,0,0,1-2.9,2.93c-3.85,2.43-4.17,7.65-3,11.61q.15.6.36,1.2a13.66,13.66,0,0,0,1.8,3.36,84,84,0,0,1,6.76,11.44c.73,1.44,1.43,2.89,2.08,4.38.6,1.32,1.15,2.67,1.63,4.07a47,47,0,0,1,1.66,5.52C39.84,70.6,40,76.25,44.18,79.45A4.77,4.77,0,0,0,50.81,78.06Z" transform="translate(-1.35 -17.67)"/><path class="cls-7" d="M59.49,87.41a3.36,3.36,0,0,0,.8-1.89c.23-.94.45-1.88.65-2.82a82.89,82.89,0,0,1,1.73-8.14,28,28,0,0,1,3-6.33,44.34,44.34,0,0,1,9.67-10.42l1.14-.92c6.46-5.13,12.19-11.14,13.85-19.25.08-.41.15-.82.22-1.24.27-2.21.61-4.88-1-6.64-.81-1-1.77-1.74-2.58-2.67-1.13-1.3-1.16-3.28-2.44-4.59A9.1,9.1,0,0,0,79,20.06c-.32,0-.63,0-1-.06a13.2,13.2,0,0,0-3.16.25,23.92,23.92,0,0,1-7.65,1.07,6.14,6.14,0,0,0-2.9.72,14.44,14.44,0,0,0-2,1.15c-1.3.87-2.52,1.92-3.69,2.86-.3.27-.59.55-.87.83A24.35,24.35,0,0,0,52.4,35C50,41,49.31,47.12,48.9,53.56c-.56,9.18-1.27,18,.85,27,.1.42.21.85.32,1.28.67,2.15.54,5.13,2.94,6.09a6.53,6.53,0,0,0,2.9.42c1-.09,1.84-.38,2.77-.55A1.73,1.73,0,0,0,59.49,87.41Z" transform="translate(-1.35 -17.67)"/><path class="cls-7" d="M54.26,84.56c.21-.38.59-.67.67-1.09.5-3.16-.5-6.18-1.23-9.15-.27-.95-.55-1.89-.83-2.83a57,57,0,0,1-1.49-5.71c-.26-1.24-.49-2.49-.66-3.74a37,37,0,0,1-.31-3.8c0-1.06-1.59-1.94-2.83-2.46S45.19,54.66,44,54s-2.28-1.31-3.39-2c-.85-.57-1.67-1.18-2.46-1.82-4.66-3.75-8.84-8.93-14.29-11.46A15.74,15.74,0,0,0,22,38a35.52,35.52,0,0,0-7.9-1.18c-.47,0-.93,0-1.39,0-2.84.11-6.36,1-7.23,4a12.41,12.41,0,0,0-.32,2.36c-.22,2-1.78,3.16-2.65,4.83a11.4,11.4,0,0,0-1.17,4.58,16.15,16.15,0,0,0,.08,2.5c.72,8.43,8.59,14.9,16.83,15.2.74.13,1.49.25,2.22.39a25.25,25.25,0,0,1,8.57,2.91c4.46,2.65,7.28,6.77,10.21,10.91.5.7.91,1.48,1.46,2.16,3.09,3.81,8.67,2.47,11.9-.29A7.79,7.79,0,0,0,54.26,84.56Z" transform="translate(-1.35 -17.67)"/><path class="cls-5" d="M47.37,89a1.39,1.39,0,0,1-.44-.87c-.94-4.41-1.85-8.93-4.51-12.69-3.91-5.64-10-8.49-15.87-11.21-1.45-.71-2.89-1.42-4.3-2.2a40.7,40.7,0,0,1-4.14-2.58c-5.75-4.14-12.3-11-9.6-18.76.38-1.1.88-2.14,1.19-3.28a27.6,27.6,0,0,1,.76-3.5c1.4-3.21,5.55-1.63,7.66-3.85,1.25-1.32,2.22-2.75,4.21-2.88s3.72,1,5.66,1c2.5.07,4.95-.35,7.29.74,8.61,4,13.31,13.18,16.31,21.73.61,1.73,1.14,3.46,1.63,5.21A122,122,0,0,1,56.35,71c.06.48.13,1,.2,1.45l.18,1.45a48.35,48.35,0,0,1,.19,7.42c-.05,1.25-.12,2.5-.18,3.76-.05,1,.13,2.25-.55,3-.9,1.06-2.65,1-3.91,1.07-.88,0-1.76.06-2.64,0C49,89.25,47.87,89.4,47.37,89Z" transform="translate(-1.35 -17.67)"/><path class="cls-4" d="M12.33,64.16l-.07-.09L12.17,64a4.06,4.06,0,0,0-.43-.35,2.2,2.2,0,0,0-.25-.17l-.27-.18a11.7,11.7,0,0,1-2.88-2.61,13.26,13.26,0,0,1-2-3.43,18.16,18.16,0,0,1-.65-2.13c-.12-.48-.22-1-.32-1.45,0-.12-.06-.24-.08-.36-.09-.62-.33-1.89-1.24-1.4-.42.27-.47.89-.52,1.39,0,.11,0,.23,0,.35a10.78,10.78,0,0,0,.32,1.77,17.92,17.92,0,0,0,.77,2.35A15.67,15.67,0,0,0,7.24,62a12.39,12.39,0,0,0,1.68,1.64c.3.25.62.5.95.73l.26.17.26.15.26.14.26.12a1.21,1.21,0,0,0,.3.11l.28.07.26,0H12c.29,0,.48-.18.52-.41a.61.61,0,0,0-.06-.4A.76.76,0,0,0,12.33,64.16Z" transform="translate(-1.35 -17.67)"/><path class="cls-4" d="M12.21,45.89a3,3,0,0,1-.24-1c0-.07,0-.14,0-.2v-.07c0-.17,0-.35,0-.53v-.21h0s0,0,0,0h0v0a2.33,2.33,0,0,0,0-.28A.7.7,0,0,0,11,43.1H11a1,1,0,0,0-.81.65l0,.12V44h0v0h0v0a2.45,2.45,0,0,0,0,.27c0,.17,0,.35,0,.52l0,.2a5.79,5.79,0,0,0,.46,1.58,6.71,6.71,0,0,0,.35.65,2.45,2.45,0,0,0,.41.6.85.85,0,0,0,1-.14c.45-.33.44-.61.32-.83A6.29,6.29,0,0,1,12.21,45.89Z" transform="translate(-1.35 -17.67)"/><path class="cls-4" d="M20.38,55.36l-.47-.4-.49-.45-1-.85a20.14,20.14,0,0,1-1.83-1.73l-.11-.12-.11-.13-.22-.26L16,51.15l-.1-.13-.1-.14c-.27-.35-.51-.72-.77-1.05a3.07,3.07,0,0,0-.25-.26l0,0,0,0-.08-.07-.15-.1a.56.56,0,0,0-.64,0l0,0,0,0a1.15,1.15,0,0,0-.3.66v.21a1.85,1.85,0,0,0,0,.23c0,.07,0,.15,0,.23l.09.21.12.26c.05.09.1.16.16.25l.16.23.18.23a11.4,11.4,0,0,0,1,1.17l.27.26.27.26c.18.18.37.34.55.51.38.32.75.64,1.12.94l.52.43.51.43.24.22.06,0,0,0,.07.06.13.11a4.46,4.46,0,0,0,.56.41.86.86,0,0,0,1.2-.15C21.1,56.19,20.81,55.74,20.38,55.36Z" transform="translate(-1.35 -17.67)"/><path class="cls-7" d="M44.25,50.52c0,.16-.14.18-.41.13a8,8,0,0,1-.9-.24c-.74-.25-1.49-.52-2.25-.76l-.57-.18-.29-.08-.29-.08L39,49.16,38.39,49c-.71-.14-1.44-.27-2.16-.34l-.27,0-.28,0-.54,0H34.05l-.46,0-.52,0a2.08,2.08,0,0,1-.8-.05c-.21-.11-.2-.24,0-.36a2.19,2.19,0,0,1,.37-.17l.26-.06.3,0a16.6,16.6,0,0,1,3.23,0,22.5,22.5,0,0,1,3.18.56c1.05.26,2.07.58,3.08.94l.51.22c.17.08.34.17.49.26a1.38,1.38,0,0,1,.58.53Z" transform="translate(-1.35 -17.67)"/><path class="cls-7" d="M44.06,50.46c0,.16-.24.13-.56,0L43,50.35l-.44-.15c-.86-.3-1.71-.6-2.57-.84a21.05,21.05,0,0,0-2.7-.61l-.35,0-.34,0-.69-.08-.69,0H34l-.48,0-.49,0H32.6c-.27,0-.35-.18-.22-.3a.67.67,0,0,1,.19-.1l.12-.05.13,0a5.77,5.77,0,0,1,.6-.09,17,17,0,0,1,2.94,0,21.78,21.78,0,0,1,2.89.48,30.18,30.18,0,0,1,3.08.91c.71.25,1.61.65,1.73,1,0,.11.42.22.38.11a1.2,1.2,0,0,0-.46-.49,5.07,5.07,0,0,0-.87-.48c-.2-.09-.41-.17-.63-.25l-.64-.21-.21-.08L41.4,49,41,48.86l-.44-.13-.45-.13a22.49,22.49,0,0,0-3.66-.68l-.43,0-.44,0-.44,0h-.88l-.45,0a6.23,6.23,0,0,0-.88.1l-.24,0-.2.07-.33.15c-.17.11-.24.22-.18.32s.27.19.53.2a6.33,6.33,0,0,0,1,0,18.42,18.42,0,0,1,6.29.72c1.14.31,2.29.75,3.42,1.11.17.06.33.1.49.14a2.76,2.76,0,0,0,.44.08c.25,0,.41,0,.38-.19S44,50.36,44.06,50.46Z" transform="translate(-1.35 -17.67)"/><path class="cls-7" d="M39.71,42.44a.08.08,0,0,1,0,.1.19.19,0,0,1-.09,0l-.34,0-.51,0a5.58,5.58,0,0,1-.57-.08L38,42.37l-.17,0-.35-.1-.69-.2-1.38-.45L34,41.13l-.68-.22-.68-.2a28.45,28.45,0,0,0-5.15-1l-.55,0-.62,0c-.21,0-.4,0-.57-.06l-.22,0-.16-.07c-.23-.14-.19-.26,0-.35a1.94,1.94,0,0,1,.46-.11,4.7,4.7,0,0,1,.67,0,25.72,25.72,0,0,1,3.81.45c.63.13,1.25.27,1.87.43l.92.26.46.13.46.14c1.21.38,2.41.78,3.61,1.13l.31.1.16.06.15.05.6.18a2.52,2.52,0,0,1,.52.25.73.73,0,0,1,.26.29Z" transform="translate(-1.35 -17.67)"/><path class="cls-7" d="M39.49,42.36c0,.08,0,.11-.15.11l-.47,0a5.91,5.91,0,0,1-.65-.09l-.16,0-.15,0-.25-.07c-1.06-.29-2.08-.65-3.11-1L33.76,41l-.2-.06-.2-.06-.4-.13c-.53-.15-1.06-.3-1.6-.43s-1.08-.25-1.62-.35-1.09-.18-1.64-.25l-.57-.06-.58,0-.59,0a2.84,2.84,0,0,1-.55-.07c-.32-.08-.39-.23-.2-.33a1.46,1.46,0,0,1,.54-.11h.72c.58,0,1.16.09,1.73.16s1.16.16,1.73.27,1.14.24,1.7.39l.84.22.83.25,3.63,1.13.67.21.32.11.31.1a2.42,2.42,0,0,1,.56.22.58.58,0,0,1,.3.27.3.3,0,0,0,.1.09l.07,0,0,0,0,0,.07,0,.06,0s.06,0,.05,0a.39.39,0,0,0-.05-.14.51.51,0,0,0-.11-.16,1.49,1.49,0,0,0-.41-.29,3.4,3.4,0,0,0-.56-.21l-.54-.17-.75-.24-.76-.23-2.08-.65-1-.33L33.09,40l-.53-.15q-1.07-.29-2.16-.51c-.67-.13-1.36-.24-2-.31a14.82,14.82,0,0,0-2.1-.14,3.19,3.19,0,0,0-.93.13c-.23.08-.34.18-.29.3s.28.22.6.28c.15,0,.33,0,.53.07l.61.05a25.66,25.66,0,0,1,3.78.53c.62.13,1.24.28,1.85.46l.46.13.47.14.91.3,2.07.69,1,.32.52.14.14,0,.15,0,.28,0,.6.06.44.06.17,0h.14a.12.12,0,0,0,.12-.13.14.14,0,0,0-.06-.1.54.54,0,0,0-.16-.1C39.59,42.31,39.48,42.31,39.49,42.36Z" transform="translate(-1.35 -17.67)"/><path class="cls-5" d="M54.61,49.22c-.11.07-.14,0-.13-.12s0-.16.05-.26.07-.23.11-.36c.18-.52.43-1.22.63-1.78,1.1-3,2-6.32,3.07-9.41a26.85,26.85,0,0,1,1.91-4.24c.19-.34.4-.67.61-1s.45-.64.69-1,.49-.61.76-.9.54-.57.83-.83l.36-.31c.12-.11.26-.22.4-.33l.45-.34.23-.16.24-.15.23-.14.23-.13.43-.21.36-.15.29-.06c.21,0,.31,0,.32.06s-.06.16-.21.28-.88.62-1.55,1.09A12.18,12.18,0,0,0,62.57,31a15.94,15.94,0,0,0-1.81,2.63,26.72,26.72,0,0,0-1.35,2.92c-.39,1-.74,2-1.06,3.06-.66,2.07-1.23,4.19-2,6.26a17.15,17.15,0,0,1-.88,2.1,4.31,4.31,0,0,1-.88,1.27Z" transform="translate(-1.35 -17.67)"/><path class="cls-5" d="M54.76,48.84c-.19.1,0-.4.2-1.05l.69-1.95c.6-1.76,1.13-3.55,1.69-5.34a49.36,49.36,0,0,1,2-5.45,21.36,21.36,0,0,1,1.37-2.59,14.88,14.88,0,0,1,1.78-2.32A14.13,14.13,0,0,1,64,28.76l.41-.31.22-.15.23-.15.24-.14.22-.13a3.7,3.7,0,0,1,.42-.19c.53-.21.7-.11.47.12l-.31.25-.43.3c-.31.21-.66.46-1,.7a12.42,12.42,0,0,0-2.09,2,15.81,15.81,0,0,0-1.65,2.41,24.84,24.84,0,0,0-1.25,2.66c-.37.91-.7,1.84-1,2.78-.67,2.07-1.24,4.18-1.94,6.27-.12.36-.26.76-.41,1.14s-.31.77-.47,1.12a4.24,4.24,0,0,1-.9,1.39,1.43,1.43,0,0,0-.26.45c-.08.19-.13.35-.06.3a1.72,1.72,0,0,0,.36-.36,6.61,6.61,0,0,0,.44-.65,15.07,15.07,0,0,0,.89-1.84c.34-.84.63-1.74.9-2.61.38-1.2.73-2.41,1.09-3.6s.75-2.38,1.18-3.54a25.58,25.58,0,0,1,1.53-3.37,15.58,15.58,0,0,1,2-2.8A13,13,0,0,1,64,29.61c.45-.38.92-.72,1.37-1s1-.65,1.29-.88.45-.4.33-.47a.68.68,0,0,0-.39,0,1.29,1.29,0,0,0-.31.08,3.3,3.3,0,0,0-.37.13,8.26,8.26,0,0,0-1.79,1,12.76,12.76,0,0,0-2.49,2.38,17.39,17.39,0,0,0-1.86,2.87,28.37,28.37,0,0,0-1.37,3.1c-.39,1.06-.75,2.13-1.08,3.19-.75,2.36-1.48,4.82-2.3,7.1-.25.68-.5,1.35-.64,1.83a2.3,2.3,0,0,0-.12.55c0,.12,0,.16.14.11a1,1,0,0,0,.26-.42C54.78,49,54.83,48.81,54.76,48.84Z" transform="translate(-1.35 -17.67)"/><path class="cls-5" d="M59.44,45.34a.14.14,0,0,1,0-.17l.08-.08.11-.07a6.27,6.27,0,0,1,.58-.29c.5-.24,1-.55,1.55-.85A12.14,12.14,0,0,1,63.44,43l.44-.14H64l.1,0,.21-.05c.3,0,.58-.09.88-.12a8.54,8.54,0,0,1,1.75,0,6.49,6.49,0,0,1,.78.12,1.08,1.08,0,0,1,.57.28c.11.18,0,.29-.1.35a1.3,1.3,0,0,1-.31,0l-.41,0a8.46,8.46,0,0,0-2.3-.09l-.56.08-.28.06-.15,0h-.06l-.07,0A5,5,0,0,0,63,44c-.68.36-1.34.82-2.09,1.2a2.88,2.88,0,0,1-.85.26.84.84,0,0,1-.63-.14Z" transform="translate(-1.35 -17.67)"/><path class="cls-5" d="M59.58,45.29c0-.06,0-.11,0-.17l.11-.08.15-.08.66-.32c.58-.3,1.17-.66,1.78-1a10.07,10.07,0,0,1,1-.48,4.72,4.72,0,0,1,.53-.18l.14,0H64l.07,0,.26,0,.55-.09.27,0,.28,0a7.93,7.93,0,0,1,1.09,0c.26,0,.51,0,.76.09a3.24,3.24,0,0,1,.39.07,1,1,0,0,1,.34.13c.19.11.19.28,0,.34a1.5,1.5,0,0,1-.79,0,8.87,8.87,0,0,0-2.12-.06l-.26,0-.26,0-.25,0-.27.06a4.61,4.61,0,0,0-1,.36c-.69.34-1.35.8-2.09,1.19a2.89,2.89,0,0,1-.86.33.78.78,0,0,1-.67-.09.24.24,0,0,0-.19,0c-.08,0-.13,0-.1.09l.08.08a.27.27,0,0,0,.12.06.81.81,0,0,0,.33.06,2.15,2.15,0,0,0,.8-.14,5.89,5.89,0,0,0,.94-.47c.41-.23.8-.48,1.19-.7a6.85,6.85,0,0,1,1.17-.55l.29-.08.33-.07.15,0,.16,0,.33,0a8.25,8.25,0,0,1,1.22,0c.41,0,.85.1,1.26.14s.84,0,.84-.26-.48-.49-1-.59a8.57,8.57,0,0,0-2.58-.08l-.32,0-.32.06-.15,0-.08,0h-.08l-.33.09a8.71,8.71,0,0,0-1.2.53c-.82.44-1.62.94-2.37,1.3l-.16.08-.16.08-.14.07-.06,0-.06,0a.88.88,0,0,0-.17.16.17.17,0,0,0,0,.18.19.19,0,0,0,.19,0l.09,0A0,0,0,0,0,59.58,45.29Z" transform="translate(-1.35 -17.67)"/><path class="cls-5" d="M62.43,35.66c-.08,0-.13,0-.15-.07a.2.2,0,0,1,0-.11.4.4,0,0,1,0-.15.76.76,0,0,1,.19-.32,1.14,1.14,0,0,1,.28-.23,3,3,0,0,1,.77-.33,5.32,5.32,0,0,1,.78-.14,13.3,13.3,0,0,1,1.54-.06,13.14,13.14,0,0,1,1.4.08,13.61,13.61,0,0,1,1.4.23,4.06,4.06,0,0,1,.62.18c.21.08.4.2.44.33a.31.31,0,0,1,0,.22.29.29,0,0,1-.16.1,1.28,1.28,0,0,1-.56,0,10.31,10.31,0,0,0-1.86-.3,13.4,13.4,0,0,0-1.9,0,7.32,7.32,0,0,0-.93.09,5.41,5.41,0,0,0-.86.21l-.53.2-.23.09a.81.81,0,0,1-.22.07Z" transform="translate(-1.35 -17.67)"/><path class="cls-5" d="M62.46,35.54c-.07,0-.11,0-.11-.14a.64.64,0,0,1,.14-.29,1.29,1.29,0,0,1,.3-.27,1.34,1.34,0,0,1,.29-.15,4.11,4.11,0,0,1,.87-.26,8.55,8.55,0,0,1,.87-.09,14.75,14.75,0,0,1,1.76,0,12.88,12.88,0,0,1,1.75.22l.61.13a1.46,1.46,0,0,1,.58.26.19.19,0,0,1,0,.34,1.22,1.22,0,0,1-.64-.06A10.69,10.69,0,0,0,67.14,35a14.28,14.28,0,0,0-1.73,0c-.32,0-.64,0-1,.07a6.23,6.23,0,0,0-.9.19l-.6.21-.26.1a1,1,0,0,1-.24,0,.1.1,0,0,0-.07,0,.42.42,0,0,0,0,.1v0l0,0s0,0,.05,0l.09,0,.1,0,.19-.08.2-.09.23-.08a4.05,4.05,0,0,1,.67-.21,6.85,6.85,0,0,1,1-.16,14.33,14.33,0,0,1,2.17,0c.33,0,.67.07,1,.12s.68.15,1,.22a1.48,1.48,0,0,0,.46,0,.38.38,0,0,0,.16-.06.25.25,0,0,0,.11-.12c0-.13,0-.28-.17-.41a1.81,1.81,0,0,0-.59-.29,12,12,0,0,0-2-.35A15.71,15.71,0,0,0,65,34.19a8.32,8.32,0,0,0-1.19.13,3.38,3.38,0,0,0-.6.17,2.32,2.32,0,0,0-.59.33,1,1,0,0,0-.28.32.79.79,0,0,0-.13.36v.08a.22.22,0,0,1,0,.08l0,.05,0,0a.22.22,0,0,0,.18,0,.08.08,0,0,0,0,0l0-.08a.22.22,0,0,0,0-.08A0,0,0,0,0,62.46,35.54Z" transform="translate(-1.35 -17.67)"/><path class="cls-5" d="M40,78.7c0,.11-.1.09-.17,0a1.56,1.56,0,0,1-.13-.19l-.08-.13-.08-.15c-.13-.2-.28-.44-.44-.67s-.34-.48-.49-.69c-.43-.57-.91-1.12-1.39-1.7s-1-1.13-1.46-1.66c-.26-.26-.52-.52-.79-.76a9,9,0,0,0-.84-.69l-.21-.15-.24-.16-.46-.31-.46-.29L32.54,71l-.24-.14A35.69,35.69,0,0,0,28.66,69a36.82,36.82,0,0,0-3.84-1.43l-.39-.11L24,67.34l-.47-.13-.47-.12L22.61,67l-.4-.12-.33-.11-.23-.11c-.33-.2-.25-.32.11-.34a3.09,3.09,0,0,1,.72,0l.48.07.54.12c1,.23,1.91.51,2.85.83s1.86.69,2.77,1.09l.68.3.67.33c.45.22.89.44,1.33.68l.32.18.33.19.64.38.64.4.61.4a13.34,13.34,0,0,1,2.28,2c.34.36.67.74,1,1.12s.63.75,1,1.13a9.31,9.31,0,0,1,1.14,1.74,3.7,3.7,0,0,1,.29.82,1.47,1.47,0,0,1,0,.33.79.79,0,0,1,0,.23Z" transform="translate(-1.35 -17.67)"/><path class="cls-5" d="M39.88,78.36c0,.09-.11,0-.21-.1a2.51,2.51,0,0,1-.18-.27l-.23-.35c-.17-.25-.37-.53-.57-.79s-.39-.5-.53-.68l-.81-1c-.27-.32-.54-.64-.82-1a18.19,18.19,0,0,0-1.74-1.77l-.24-.2-.25-.19L34,71.9l0,0h0l-.07,0-.13-.09-.54-.35L32.69,71l-.13-.09-.14-.08-.28-.17-.56-.32L31,70.06l-.57-.29c-.77-.39-1.55-.76-2.34-1.09l-.3-.12-.3-.12-.6-.23c-.41-.15-.81-.3-1.22-.43l-.42-.15-.43-.13-.43-.12L24,67.26l-.44-.12L23.07,67l-.45-.12-.38-.12a.93.93,0,0,1-.41-.24c0-.07,0-.13.16-.15a3.44,3.44,0,0,1,.85.06l.54.11.54.13A34.31,34.31,0,0,1,29,68.46l.61.28.61.29a3,3,0,0,1,.31.15l.3.15.3.15.15.08.15.08.6.33.58.33.58.36c.2.12.39.23.58.36l.31.2.15.1.08.05.08.06.31.22.15.12.15.12a13.55,13.55,0,0,1,1.12,1c.71.71,1.34,1.47,2,2.23a11.93,11.93,0,0,1,1.3,1.78,5,5,0,0,1,.38.85,2.73,2.73,0,0,1,.08.34,1,1,0,0,1,0,.25.47.47,0,0,0,0,.19l0,.13,0,.13,0,.06s0,0,0,.06l0,.1s0,.06.06,0a1.45,1.45,0,0,0,.06-.19,2.35,2.35,0,0,0,0-.28,3.09,3.09,0,0,0-.15-.72,6.91,6.91,0,0,0-.89-1.66c-.23-.34-.5-.67-.76-1l-.81-.95c-.37-.44-.75-.87-1.15-1.28a13.16,13.16,0,0,0-1.28-1.19l-.35-.28-.18-.13-.19-.13-.71-.46L33,70.33l-.75-.43c-1-.56-2-1.08-3.07-1.54s-2-.81-3-1.15L25.39,67l-.79-.24-.8-.21L23,66.33a6.51,6.51,0,0,0-1.45-.14c-.36,0-.55.08-.49.2s.39.3.86.45c.24.08.51.15.8.23l.45.13.47.12.72.2.71.21.36.12.35.12.7.24c.93.34,1.86.72,2.76,1.14s1.78.87,2.64,1.37l.64.37.63.4.62.41.08.06,0,0,0,0s0,0,0,0h0l.15.11.29.22a17.56,17.56,0,0,1,2.31,2.33L37.78,76c.36.42.7.84,1,1.28a11.38,11.38,0,0,1,.89,1.4l0,.07,0,.06.06.11a.31.31,0,0,1,0,.1.35.35,0,0,1,0,.08c.07.08.13.09.19,0a.35.35,0,0,0,0-.17,1.54,1.54,0,0,0-.07-.27,1.16,1.16,0,0,0-.1-.22S39.89,78.33,39.88,78.36Z" transform="translate(-1.35 -17.67)"/><path class="cls-5" d="M65.37,75.88c-.08,0-.13,0-.15-.09a1,1,0,0,1,0-.38,2.56,2.56,0,0,1,0-.27c0-.09,0-.19.08-.28l.09-.29.1-.27A14.36,14.36,0,0,1,66.14,73c.22-.44.46-.88.72-1.3.12-.21.26-.42.39-.63s.27-.42.42-.62.28-.4.42-.6l.44-.58.21-.28.22-.26c.14-.18.29-.35.44-.52l.46-.51.11-.12.12-.13.24-.24a22.08,22.08,0,0,1,2-1.82c.26-.2.63-.5,1-.73a2.35,2.35,0,0,1,.9-.42c.28,0,.31.12.17.32a3.78,3.78,0,0,1-.83.75,22.5,22.5,0,0,0-2.84,2.49c-.44.45-.85.92-1.25,1.41l-.14.18-.08.1-.07.09-.28.37-.28.39-.27.38A23.06,23.06,0,0,0,66.52,74c-.17.38-.38.81-.58,1.17a4.61,4.61,0,0,1-.29.46,1,1,0,0,1-.26.28Z" transform="translate(-1.35 -17.67)"/><path class="cls-5" d="M65.42,75.64c-.08,0-.11,0-.11-.16a1,1,0,0,1,0-.22.78.78,0,0,1,0-.14s0-.09,0-.14a8.11,8.11,0,0,1,.43-1.17,18.34,18.34,0,0,1,1.6-2.92c.32-.48.64-1,1-1.4.08-.12.17-.23.26-.34l.06-.09.07-.08.14-.17c.18-.22.36-.44.55-.65l.58-.63.61-.61c.41-.4.83-.78,1.27-1.15s.62-.5.93-.74a5.07,5.07,0,0,1,1-.63c.31-.13.45,0,.35.15a3.65,3.65,0,0,1-.94.84c-.46.35-.9.71-1.33,1.09s-.85.79-1.24,1.19S70,68.52,69.59,69c-.09.11-.19.22-.27.33l-.07.09,0,0,0,0-.13.17-.13.17L68.8,70c-.09.11-.17.23-.25.35a22.72,22.72,0,0,0-1.93,3.26c-.19.4-.41.86-.61,1.25a5.33,5.33,0,0,1-.3.51.88.88,0,0,1-.29.29c-.11.06-.21.53-.1.47a1.14,1.14,0,0,0,.24-.22l.12-.18a1.91,1.91,0,0,0,.14-.21c.17-.29.36-.66.54-1s.44-1,.68-1.41c.33-.64.7-1.26,1.09-1.87.19-.3.4-.6.6-.89l.32-.44.17-.21.08-.11,0-.05,0-.06c.22-.28.45-.55.69-.83l.36-.4.09-.1.1-.09.19-.2c.23-.24.47-.48.71-.71l.75-.68c.5-.44,1.1-.88,1.61-1.28l.4-.34a3.58,3.58,0,0,0,.28-.3c.15-.18.19-.33.09-.4s-.36,0-.67.09a6.63,6.63,0,0,0-1,.62,22.15,22.15,0,0,0-3,2.64c-.47.49-.9,1-1.32,1.51s-.81,1.06-1.18,1.61-.81,1.25-1.17,1.91a15.45,15.45,0,0,0-.91,2c0,.11-.07.21-.1.32s-.06.2-.08.3,0,.2-.06.29a.59.59,0,0,0,0,.13.49.49,0,0,0,0,.12c0,.3,0,.48.2.42S65.53,75.6,65.42,75.64Z" transform="translate(-1.35 -17.67)"/><path class="cls-7" d="M48.85,87.1c-.24.18-.41-.37-.48-.74-.18-1-.27-2-.5-3A12,12,0,0,0,47.48,82c-.07-.22-.16-.43-.25-.65s-.09-.2-.14-.31L47,80.93l-.08-.15-.14-.26c0-.09-.12-.18-.17-.27a.93.93,0,0,1-.15-.5c0-.18.16-.24.3-.19a.6.6,0,0,1,.24.14,1.74,1.74,0,0,1,.24.28,9.63,9.63,0,0,1,.92,1.88,16.05,16.05,0,0,1,.55,2c.14.68.25,1.35.34,2a2.81,2.81,0,0,1,0,.71.75.75,0,0,1-.22.5Z" transform="translate(-1.35 -17.67)"/><path class="cls-7" d="M48.81,87c-.25.15-.37-.6-.42-.92-.1-.57-.16-1.14-.26-1.7a14.25,14.25,0,0,0-.38-1.72c0-.14-.08-.28-.13-.42l-.14-.41-.17-.41a1.76,1.76,0,0,0-.09-.2L47.13,81l-.06-.14L47,80.74l-.15-.26-.16-.27a1.18,1.18,0,0,1-.11-.27c0-.18.07-.3.2-.28a.35.35,0,0,1,.14.06l.07,0,.06.07a1.78,1.78,0,0,1,.23.31,8.66,8.66,0,0,1,.82,1.71,14.36,14.36,0,0,1,.52,1.81c.15.67.26,1.35.35,2,.07.48.1,1.09-.16,1.29-.07.06,0,.31.08.25a1.42,1.42,0,0,0,.28-1.07c0-.28-.07-.56-.11-.84s-.13-.78-.2-1.17a14.9,14.9,0,0,0-.62-2.31l-.09-.26c0-.09-.08-.18-.11-.27l-.12-.26-.12-.25a2.1,2.1,0,0,0-.13-.26l-.14-.26a2.86,2.86,0,0,0-.32-.48.58.58,0,0,0-.1-.12.87.87,0,0,0-.11-.09.8.8,0,0,0-.21-.13.26.26,0,0,0-.32.05.44.44,0,0,0,0,.42,3.73,3.73,0,0,0,.26.54A10.81,10.81,0,0,1,48,84.24c.13.74.19,1.53.36,2.27.1.45.3.87.56.72C49,87.18,48.9,86.93,48.81,87Z" transform="translate(-1.35 -17.67)"/><path class="cls-7" d="M52.4,85.34a12.12,12.12,0,0,0-.18-1.46c-.1-.53-.14-1.44-.71-1.71s-.25,1.33-.19,1.63a9.92,9.92,0,0,1,.38,2.65.61.61,0,0,0,0,.33c.19.32.59-.19.64-.38a1.42,1.42,0,0,0,0-.36C52.43,85.81,52.42,85.58,52.4,85.34Z" transform="translate(-1.35 -17.67)"/><path class="cls-7" d="M62.61,82.35a14.16,14.16,0,0,0-.41,1.41c-.12.53-.45,1.38,0,1.85s.76-1.12.82-1.41a10,10,0,0,1,.72-2.58.54.54,0,0,0,.09-.32c0-.37-.62-.07-.74.09a1.57,1.57,0,0,0-.18.31C62.78,81.92,62.69,82.13,62.61,82.35Z" transform="translate(-1.35 -17.67)"/><path class="cls-5" d="M45.09,86,45,85.66c-.08-.37-.16-.75-.27-1.11-.15-.52-.28-1.42-.86-1.64-.74-.27-.12,1.35,0,1.64s.24.72.35,1.08.16.71.25,1.07.36,1,.69.57a.73.73,0,0,0,.08-.52A7,7,0,0,0,45.09,86Z" transform="translate(-1.35 -17.67)"/><path class="cls-5" d="M59.45,85.06c-.27.13-.37-.4-.37-.78a12.4,12.4,0,0,1,.1-1.48c.07-.49.15-1,.22-1.47.15-.9.33-1.79.53-2.67.07-.33.16-.92.39-1s.47.2.38.69c-.25,1.25-.5,2.51-.66,3.76q-.12.95-.18,1.89c0,.1,0,.21,0,.32a3,3,0,0,1-.08.32,1.18,1.18,0,0,1-.12.28.52.52,0,0,1-.16.17Z" transform="translate(-1.35 -17.67)"/><path class="cls-5" d="M59.42,84.94c-.13,0-.2-.1-.24-.31a4.79,4.79,0,0,1,0-.63,13.31,13.31,0,0,1,.17-1.67c.17-1.13.37-2.26.62-3.37l.12-.58a1.74,1.74,0,0,1,.19-.57.2.2,0,0,1,.34,0,1,1,0,0,1,0,.66c-.23,1.14-.45,2.28-.61,3.43-.08.63-.15,1.26-.19,1.89a3.28,3.28,0,0,1-.1.7.7.7,0,0,1-.28.48c-.08,0,0,.28,0,.24a.72.72,0,0,0,.28-.38,2.14,2.14,0,0,0,.09-.27c0-.1,0-.2.06-.3s0-.26,0-.39,0-.27,0-.4c0-.36.07-.72.11-1.08q.13-1.08.33-2.16c0-.16.06-.33.1-.5l.09-.51c.07-.33.16-.69.2-1s-.07-.69-.3-.7-.45.37-.54.8c-.3,1.28-.55,2.59-.75,3.91A10.57,10.57,0,0,0,59,84.42a3.31,3.31,0,0,0,0,.33.88.88,0,0,0,.09.26c.07.15.18.22.32.17S59.51,84.9,59.42,84.94Z" transform="translate(-1.35 -17.67)"/><path class="cls-5" d="M85.6,36c.18-.09.17.17.1.55s-.22.88-.35,1.28c-.34,1.08-.69,2.18-1.08,3.28-.19.55-.39,1.1-.59,1.65-.05.13-.1.27-.16.41l-.07.2,0,.05v0h0l0,.1c-.06.13-.11.26-.18.4s-.13.27-.2.4A15.3,15.3,0,0,1,81.14,47c-.35.42-.71.82-1.08,1.21l-.55.59-.07.07-.06.07-.14.15-.27.29-1,1.06a4.3,4.3,0,0,1-.82.79c-.28.14-.35,0-.27-.24a4.1,4.1,0,0,1,.73-1.16l.77-.85.38-.43.09-.1.11-.12.19-.2c.51-.56,1-1.12,1.49-1.7.24-.29.46-.59.68-.89.11-.15.21-.3.31-.46s.2-.31.3-.46l.14-.24c0-.08.09-.16.13-.25l.13-.24.12-.24c.08-.16.15-.34.22-.52l0,0h0s0,0,0,0h0v0l0-.06,0-.13.1-.27c.52-1.42,1-2.87,1.46-4.31A11.27,11.27,0,0,1,85,36.88a2.67,2.67,0,0,1,.62-.91Z" transform="translate(-1.35 -17.67)"/><path class="cls-5" d="M85.52,36.24c.17-.07.11.29,0,.76s-.31,1-.42,1.4c-.4,1.24-.81,2.48-1.26,3.71-.12.32-.23.64-.35,1l-.1.24,0,.06v0h0v0l0,.11-.1.23a2.56,2.56,0,0,1-.11.24c-.15.31-.32.61-.49.91l-.27.43-.29.43a27,27,0,0,1-2.64,3.09l-.94,1-.23.26-.06.07,0,0,0,0-.13.14c-.16.18-.32.35-.46.48-.29.25-.47.23-.41,0a3.91,3.91,0,0,1,.85-1.26l.7-.77.35-.39.35-.38c.47-.51.93-1,1.36-1.55a15.64,15.64,0,0,0,1.19-1.65l.26-.43.13-.22L82.4,44l0-.11.06-.11.1-.23c0-.07.07-.15.11-.23l0-.12,0-.06s0,0,0,0h0v-.05c.54-1.42,1-2.87,1.48-4.32.17-.51.38-1.09.59-1.58a2.5,2.5,0,0,1,.64-1c.12-.07.28-.62.16-.55a5,5,0,0,0-1.16,2c-.22.58-.42,1.21-.61,1.81-.28.83-.55,1.66-.84,2.48-.07.2-.15.4-.22.61l-.11.3-.06.16v0h0s0,0,0,0h0l0,.08-.13.3-.13.28c0,.09-.1.18-.15.28a1.82,1.82,0,0,1-.15.27,12.1,12.1,0,0,1-.67,1.08c-.24.34-.5.68-.77,1l-.79.92-.82.9-.1.11-.06.06-.06.06-.21.23-.42.47-.42.47-.1.12,0,0,0,0h0l0,.06-.19.24a3.92,3.92,0,0,0-.57,1c-.1.26-.09.43,0,.45s.38-.15.65-.41.29-.29.44-.46l.25-.27.06-.07.06-.06.13-.14.79-.86.2-.22.09-.1.1-.11.4-.42c.27-.29.53-.58.79-.88s.52-.6.76-.91.49-.64.71-1,.44-.67.64-1l.14-.26a2.44,2.44,0,0,0,.14-.28l.14-.27.11-.27.07-.15,0-.14.11-.27.2-.55c.61-1.63,1.18-3.33,1.67-5a8.35,8.35,0,0,0,.32-1.33c0-.35,0-.56-.15-.49S85.41,36.28,85.52,36.24Z" transform="translate(-1.35 -17.67)"/><path class="cls-5" d="M47.91,37.48a9.45,9.45,0,0,0-.48-1.24l-.77-1.11c-.26-.37-.53-.76-.81-1.13-2.29-2.88-4.75-6-8.46-7l-.25,0-.32,0a.44.44,0,0,0-.47.21c-.19.41.38.46.63.57l.3.1.39.16c3.14,1.29,5.49,4,7.51,6.71.3.39.58.79.86,1.19l.83,1.15a8.38,8.38,0,0,0,.68,1.07c.19.25.35.37.43.23h0A1.77,1.77,0,0,0,47.91,37.48Z" transform="translate(-1.35 -17.67)"/><path class="cls-5" d="M78.27,61.53c-.15-.05-.1-.21,0-.39a3.71,3.71,0,0,1,.57-.55c.52-.41,1.09-.77,1.65-1.14l.83-.55.2-.14.2-.14.4-.29c.5-.36,1-.73,1.5-1.09s1-.7,1.58-1a7.36,7.36,0,0,1,.75-.39l.2-.08.19-.06a.6.6,0,0,1,.3,0c.2.07.21.2.11.34a2,2,0,0,1-.62.45A18.53,18.53,0,0,0,84,57.87l-1,.78-.53.4-.26.19-.14.1-.13.1-2.17,1.49a6.06,6.06,0,0,1-.78.45,1.21,1.21,0,0,1-.65.15Z" transform="translate(-1.35 -17.67)"/><path class="cls-5" d="M78.39,61.41c-.14-.06,0-.25.18-.45a4.77,4.77,0,0,1,.66-.54c.61-.45,1.25-.85,1.87-1.27s1.26-.88,1.89-1.34,1.26-.91,1.93-1.32c.24-.14.47-.28.72-.41a2.69,2.69,0,0,1,.38-.19l.2-.08.19,0c.24,0,.33.11.25.24a.79.79,0,0,1-.28.26c-.13.09-.28.16-.42.24s-.34.2-.5.3-.34.2-.5.31c-.33.22-.65.44-1,.68-.64.46-1.27,1-1.92,1.42s-1.46,1-2.18,1.5a7,7,0,0,1-.82.51,1.11,1.11,0,0,1-.68.18c-.11,0-.34.21-.23.23a1,1,0,0,0,.57-.09,4.39,4.39,0,0,0,.72-.36c.3-.19.6-.41.9-.61l1.25-.85.62-.45.62-.45c.4-.3.8-.61,1.2-.9s.76-.54,1.15-.79.82-.48,1.2-.7a2.9,2.9,0,0,0,.29-.19,2.09,2.09,0,0,0,.21-.19c.11-.12.16-.25.09-.34a.31.31,0,0,0-.19-.12h-.15a.47.47,0,0,0-.16,0,2,2,0,0,0-.38.1,3.65,3.65,0,0,0-.41.18,46.53,46.53,0,0,0-4.5,3,29.24,29.24,0,0,0-2.5,1.72l-.32.3a2.42,2.42,0,0,0-.23.3c-.11.18-.13.33,0,.39S78.48,61.45,78.39,61.41Z" transform="translate(-1.35 -17.67)"/><path class="cls-7" d="M39.4,37.93c-.06-.19.2-.13.56.06a7.6,7.6,0,0,1,1.15.79l.17.14.17.15.32.29c.22.21.44.42.65.64a17.08,17.08,0,0,1,1.16,1.39,22.2,22.2,0,0,1,1.9,3.06,35.46,35.46,0,0,1,2.4,6.15c.11.38.28.92.4,1.42a3.27,3.27,0,0,1,.16,1.18c-.12.62-.53-.08-.86-1.22-.44-1.49-.91-3-1.48-4.39a25.79,25.79,0,0,0-2-4.12,20.36,20.36,0,0,0-1.31-1.88c-.24-.29-.49-.58-.74-.86l-.39-.42-.2-.2-.2-.19L41,39.64l-.29-.28c-.19-.19-.39-.37-.56-.55a3.24,3.24,0,0,1-.7-.86Z" transform="translate(-1.35 -17.67)"/><path class="cls-7" d="M39.65,38.08c0-.18.32,0,.74.25a9.89,9.89,0,0,1,1.19,1,15.89,15.89,0,0,1,2.62,3.11,24.39,24.39,0,0,1,2,3.67A36.32,36.32,0,0,1,47.6,50c.15.45.28.91.42,1.37a10.39,10.39,0,0,1,.33,1.4c0,.4-.1.52-.25.33a5.44,5.44,0,0,1-.56-1.43c-.4-1.36-.84-2.69-1.35-4a28.65,28.65,0,0,0-1.81-3.79,20.41,20.41,0,0,0-1.27-1.91,16.57,16.57,0,0,0-1.5-1.74l-.29-.29L41,39.58l-.31-.29L40.4,39a3,3,0,0,1-.75-.92.84.84,0,0,0-.29-.25c-.12-.07-.24-.11-.22,0a2.48,2.48,0,0,0,.57.75c.28.3.64.64,1,1l.16.16.18.17.17.17.17.16.17.17.16.17c.11.12.22.23.32.35l.22.24.21.25.11.13.1.13.2.25.2.26.09.13.1.14.19.26.18.28.09.13.09.14.17.28.17.28.17.28.16.29.16.29.3.58c.4.79.75,1.59,1.08,2.42s.58,1.54.84,2.33.5,1.65.75,2.42.62,1.49.81,1.32.07-1.16-.23-2.19a42.25,42.25,0,0,0-1.53-4.57,26.5,26.5,0,0,0-2.18-4.32c-.24-.38-.49-.76-.76-1.13-.13-.19-.28-.37-.42-.55l-.21-.27c-.08-.08-.15-.17-.23-.26l-.23-.26a2.73,2.73,0,0,0-.23-.25c-.16-.17-.33-.33-.5-.49l-.12-.12-.13-.11-.12-.11L41.49,39l-.07-.06c-.17-.15-.35-.29-.53-.42a6.51,6.51,0,0,0-1.22-.76c-.34-.15-.56-.16-.53,0s.14.17.27.24S39.65,38.14,39.65,38.08Z" transform="translate(-1.35 -17.67)"/><path class="cls-1" d="M45.45,69.18" transform="translate(-1.35 -17.67)"/><path class="cls-1" d="M45.34,67.32" transform="translate(-1.35 -17.67)"/><path class="cls-1" d="M45.34,67.27m.11,2,0-.09-.1-1.77" transform="translate(-1.35 -17.67)"/><path class="cls-1" d="M53.59,69.54c-.11-.18-.4-.11-.49,0a1.47,1.47,0,0,0-.05.42,1.64,1.64,0,0,1-.27.67.84.84,0,0,1-1.28.16A1.87,1.87,0,0,1,51,70.2c-.05-.13-.07-.36-.21-.44s-.47.14-.42.36h0a2.06,2.06,0,0,0,1.54,1.51,1.51,1.51,0,0,0,1.57-1.18,1.87,1.87,0,0,0,.11-.51A.58.58,0,0,0,53.59,69.54Z" transform="translate(-1.35 -17.67)"/><path class="cls-1" d="M53.64,69.5a.36.36,0,0,0-.54,0,.51.51,0,0,0-.1.38,1.44,1.44,0,0,1-.33.84c-.49.57-1.19.16-1.49-.38-.13-.21-.16-.7-.51-.68a.4.4,0,0,0-.33.47,2.14,2.14,0,0,0,.43.85,1.6,1.6,0,0,0,1.87.62,1.66,1.66,0,0,0,.79-.8,1.69,1.69,0,0,0,.22-1.29c0-.07-.15,0-.11,0A1.78,1.78,0,0,1,53.2,71a1.34,1.34,0,0,1-1.16.63A1.61,1.61,0,0,1,50.93,71a2.23,2.23,0,0,1-.32-.48,1.6,1.6,0,0,1-.1-.23c-.07-.2-.09-.15.16-.24s.2-.09.27.11.08.18.13.27a1.53,1.53,0,0,0,.31.41,1.06,1.06,0,0,0,.77.31,1,1,0,0,0,.74-.49,1.48,1.48,0,0,0,.17-.41,1.4,1.4,0,0,0,.06-.28c0-.16.1-.72.43-.36C53.6,69.63,53.7,69.56,53.64,69.5Z" transform="translate(-1.35 -17.67)"/><ellipse class="cls-3" cx="45.16" cy="71.79" rx="2.03" ry="1.58" transform="translate(-8.42 -12.71) rotate(-5.83)"/><ellipse class="cls-3" cx="58.9" cy="70.39" rx="2.03" ry="1.58" transform="translate(-8.2 -11.32) rotate(-5.83)"/><path class="cls-1" d="M60.24,67.79h0A2.27,2.27,0,0,0,59,66.11c-.83-.38-1.5.24-1.81,1a1.9,1.9,0,0,0-.18,1.21.36.36,0,0,0,.53.15.3.3,0,0,0,.11-.24,2.93,2.93,0,0,1,.13-.83,1.25,1.25,0,0,1,.52-.69c.3-.14.61.12.81.33a1.68,1.68,0,0,1,.43.81c0,.14.05.26.2.32A.35.35,0,0,0,60.24,67.79Z" transform="translate(-1.35 -17.67)"/><path class="cls-1" d="M46.42,69.25h0a2.29,2.29,0,0,0-1.2-1.67c-.84-.37-1.5.25-1.81,1a1.87,1.87,0,0,0-.18,1.2.36.36,0,0,0,.53.16.34.34,0,0,0,.11-.24,2.88,2.88,0,0,1,.13-.83,1.25,1.25,0,0,1,.52-.69c.3-.15.61.12.8.32a1.61,1.61,0,0,1,.44.82c0,.13.05.26.2.32A.35.35,0,0,0,46.42,69.25Z" transform="translate(-1.35 -17.67)"/></svg>