<svg xmlns="http://www.w3.org/2000/svg" xmlns:xlink="http://www.w3.org/1999/xlink" viewBox="0 0 100 100"><defs><style>.cls-1{fill:url(#linear-gradient);}.cls-2{fill:#1a171b;}.cls-3{fill:#fff;}.cls-4{fill:#db5743;}.cls-5{fill:#e2e2e2;}</style><linearGradient id="linear-gradient" y1="50" x2="100" y2="50" gradientUnits="userSpaceOnUse"><stop offset="0" stop-color="#2476af"/><stop offset="1" stop-color="#029e92"/></linearGradient></defs><title>opd_logo</title><g id="Layer_1" data-name="Layer 1"><rect class="cls-1" width="100" height="100"/></g><g id="opd"><path class="cls-2" d="M77.38,38.28a1,1,0,1,1-1-1A1,1,0,0,1,77.38,38.28Z" transform="translate(0)"/><path class="cls-3" d="M76.41,42a1.28,1.28,0,0,0-1.28,1.28V70.1a4.69,4.69,0,0,1-9.38,0V67a7.12,7.12,0,1,0-14.24,0v9.15a5.51,5.51,0,0,1-11,0V61.91a17.45,17.45,0,0,0,16.1-17.35V30.38a13.16,13.16,0,0,0-2-7.06,1.27,1.27,0,0,0-1.77-.39,1.29,1.29,0,0,0-.4,1.79A10.56,10.56,0,0,1,54,30.38V44.56a14.83,14.83,0,0,1-29.66,0V30.38A10.39,10.39,0,0,1,26,24.72a1.33,1.33,0,0,0-.4-1.79,1.28,1.28,0,0,0-1.78.39,13.17,13.17,0,0,0-2.05,7.06V44.56A17.45,17.45,0,0,0,37.91,61.91V76.15a8.09,8.09,0,1,0,16.18,0V67a4.55,4.55,0,1,1,9.09,0v3.1a7.26,7.26,0,0,0,14.51.18s0,0,0-.06V43.31A1.28,1.28,0,0,0,76.41,42Z" transform="translate(0)"/><path class="cls-3" d="M30.13,21.5A3.53,3.53,0,1,1,26.6,18,3.53,3.53,0,0,1,30.13,21.5Z" transform="translate(0)"/><path class="cls-3" d="M55.31,21.5A3.53,3.53,0,1,1,51.79,18,3.53,3.53,0,0,1,55.31,21.5Z" transform="translate(0)"/><path class="cls-3" d="M41.81,57.14H36.57a2.94,2.94,0,0,0-2.92,2.92v1.22a2.94,2.94,0,0,0,2.92,2.92h5.24a2.92,2.92,0,0,0,2.92-2.92V60.06A2.92,2.92,0,0,0,41.81,57.14Z" transform="translate(0)"/><path class="cls-4" d="M37.85,52h0a1.57,1.57,0,0,1-1.45-1L32.14,39.53l-1.61,3.66a1.54,1.54,0,0,1-1.41.93H17.54V41.05H28.11l2.72-6.26a1.48,1.48,0,0,1,1.46-.92,1.52,1.52,0,0,1,1.4,1l4.19,11.21L44,30.14a1.61,1.61,0,0,1,1.43-1,1.57,1.57,0,0,1,1.44.95l4.53,10.94h9.43v3.07H50.39A1.59,1.59,0,0,1,49,43.19l-3.45-8.31L39.3,50.94A1.53,1.53,0,0,1,37.85,52Z" transform="translate(0)"/><path class="cls-3" d="M82.46,38.28a6,6,0,1,1-6-6.05A6,6,0,0,1,82.46,38.28Z" transform="translate(0)"/><path class="cls-5" d="M79.43,38.28a3,3,0,1,1-3-3A3,3,0,0,1,79.43,38.28Z" transform="translate(0)"/></g></svg>