<svg xmlns="http://www.w3.org/2000/svg" viewBox="0 0 638.37 434.04"><defs><style>.cls-1{fill:#fff;}.cls-2{fill:#18a79d;}</style></defs><title>Asset 23</title><g id="Layer_2" data-name="Layer 2"><g id="Layer_1-2" data-name="Layer 1"><path class="cls-1" d="M282.28,200.41a7.65,7.65,0,0,1-7.12-4.85l-33.23-84.18H140.54a7.66,7.66,0,0,1,0-15.32h106.6a7.66,7.66,0,0,1,7.13,4.85l27.93,70.77L346.59,4.9A7.68,7.68,0,0,1,353.74,0h0a7.68,7.68,0,0,1,7.14,4.94l33.26,87.6H497.83a7.67,7.67,0,0,1,0,15.33H388.88a7.66,7.66,0,0,1-7.16-5l-28-73.83L289.43,195.51a7.65,7.65,0,0,1-7.12,4.9Z"/><path class="cls-2" d="M338.31,323.91H298.48a1.92,1.92,0,0,1,0-3.83h39.83a1.92,1.92,0,0,1,0,3.83Z"/><path class="cls-2" d="M430.44,363H378.89a4.79,4.79,0,0,1-4.78-4.79V281.64a4.79,4.79,0,1,1,9.57,0v71.8h46.76a4.79,4.79,0,0,1,0,9.58Z"/><path class="cls-2" d="M462.36,364.2a4.78,4.78,0,0,1-4.78-4.78V282.83a4.79,4.79,0,1,1,9.57,0v76.59A4.78,4.78,0,0,1,462.36,364.2Z"/><path class="cls-2" d="M501.31,363.69a4.79,4.79,0,0,1-4.79-4.79v-77a4.79,4.79,0,0,1,4.79-4.79H551.9a4.79,4.79,0,1,1,0,9.58H506.1V358.9A4.8,4.8,0,0,1,501.31,363.69Z"/><path class="cls-2" d="M533.74,322.94h-29.5a4.79,4.79,0,1,1,0-9.57h29.5a4.79,4.79,0,1,1,0,9.57Z"/><path class="cls-2" d="M633.58,285.5H584a4.79,4.79,0,0,1,0-9.58h49.61a4.79,4.79,0,0,1,0,9.58Z"/><path class="cls-2" d="M633.58,364H583.25a4.79,4.79,0,0,1-4.79-4.79V280.71a4.79,4.79,0,0,1,9.58,0v73.67h45.54a4.79,4.79,0,1,1,0,9.57Z"/><path class="cls-2" d="M622.3,321.3H586.14a4.79,4.79,0,1,1,0-9.58H622.3a4.79,4.79,0,1,1,0,9.58Z"/><path class="cls-1" d="M123.82,368.45a47.38,47.38,0,0,1-33.39-13.57,45.91,45.91,0,0,1,0-65.76,47.84,47.84,0,0,1,66.78,0,4.79,4.79,0,0,1-6.7,6.84,38.27,38.27,0,0,0-53.37,0,36.3,36.3,0,0,0,0,52.08,38.29,38.29,0,0,0,53.37,0,4.79,4.79,0,1,1,6.7,6.84A47.38,47.38,0,0,1,123.82,368.45Z"/><path class="cls-1" d="M4.79,366.32A4.78,4.78,0,0,1,0,361.53V329.44a4.78,4.78,0,0,1,4.79-4.79H32.08c11.48,0,20.82-7,20.82-15.7v-6c0-8.65-9.34-15.7-20.82-15.7H4.79a4.79,4.79,0,1,1,0-9.57H32.08c16.76,0,30.4,11.33,30.4,25.27v6c0,13.94-13.64,25.28-30.4,25.28H9.58v27.3A4.79,4.79,0,0,1,4.79,366.32Z"/><path class="cls-1" d="M178,364.13a4.8,4.8,0,0,1-4.79-4.79V284.66a4.79,4.79,0,0,1,8.07-3.5l31.35,29.37,30-29.3a4.79,4.79,0,1,1,6.7,6.85l-33.24,32.51a4.79,4.79,0,0,1-6.62.07l-26.64-25v63.64A4.79,4.79,0,0,1,178,364.13Z"/><path class="cls-1" d="M248,364.13a4.8,4.8,0,0,1-4.79-4.79V308.82a4.79,4.79,0,1,1,9.58,0v50.52A4.79,4.79,0,0,1,248,364.13Z"/><path class="cls-1" d="M105.33,404a8.2,8.2,0,0,1,3.54,3,9.26,9.26,0,0,1,0,9.29,8,8,0,0,1-3.54,3,13.18,13.18,0,0,1-5.43,1.05H95.16v6.65H89.71V402.94H99.9A12.86,12.86,0,0,1,105.33,404Zm-2,10.78a3.8,3.8,0,0,0,1.28-3.09,3.86,3.86,0,0,0-1.28-3.12,5.63,5.63,0,0,0-3.73-1.08H95.16v8.38h4.43A5.63,5.63,0,0,0,103.32,414.78Z"/><path class="cls-1" d="M127.19,410.3c1.5,1.36,2.25,3.43,2.25,6.18v10.59h-4.91v-2.31q-1.47,2.6-5.51,2.59a8.25,8.25,0,0,1-3.61-.73,5.37,5.37,0,0,1-2.34-2,5.26,5.26,0,0,1-.8-2.89,4.89,4.89,0,0,1,1.89-4.07q1.91-1.49,5.87-1.49h4.17a3.47,3.47,0,0,0-1-2.7,4.54,4.54,0,0,0-3.13-1,8.68,8.68,0,0,0-2.84.47,7.61,7.61,0,0,0-2.37,1.25l-1.88-3.75a11,11,0,0,1,3.54-1.66,15.57,15.57,0,0,1,4.25-.59A9.25,9.25,0,0,1,127.19,410.3Zm-4.47,12.79a3.46,3.46,0,0,0,1.48-1.88v-1.9h-3.6c-2.15,0-3.23.73-3.23,2.18a2,2,0,0,0,.79,1.64,3.52,3.52,0,0,0,2.17.6A4.52,4.52,0,0,0,122.72,423.09Z"/><path class="cls-1" d="M145.84,426.18a5.29,5.29,0,0,1-1.9.87,9.16,9.16,0,0,1-2.37.3,7,7,0,0,1-5-1.69,6.59,6.59,0,0,1-1.76-5v-7.62H132v-4.14h2.79v-4.51h5.24v4.51h4.51v4.14h-4.51v7.55a2.53,2.53,0,0,0,.59,1.81,2.12,2.12,0,0,0,1.66.64,3.31,3.31,0,0,0,2.12-.69Z"/><path class="cls-1" d="M149.07,405.07a3,3,0,0,1,0-4.28,3.29,3.29,0,0,1,2.35-.86,3.34,3.34,0,0,1,2.35.83,2.67,2.67,0,0,1,.91,2.07,2.93,2.93,0,0,1-.91,2.22,3.2,3.2,0,0,1-2.35.88A3.24,3.24,0,0,1,149.07,405.07Zm-.27,3.45H154v18.55H148.8Z"/><path class="cls-1" d="M176.53,419.31H162.85A4.37,4.37,0,0,0,164.6,422a5.73,5.73,0,0,0,3.43,1,6.93,6.93,0,0,0,2.5-.43,6,6,0,0,0,2-1.37l2.79,3.11q-2.55,3-7.46,3a11.51,11.51,0,0,1-5.41-1.23,8.75,8.75,0,0,1-3.63-3.39,9.59,9.59,0,0,1-1.28-4.93,9.69,9.69,0,0,1,1.26-4.92,8.93,8.93,0,0,1,3.46-3.41,9.94,9.94,0,0,1,4.93-1.23,9.82,9.82,0,0,1,4.81,1.18,8.38,8.38,0,0,1,3.37,3.36,10.19,10.19,0,0,1,1.23,5.08C176.63,417.94,176.59,418.42,176.53,419.31Zm-12.27-6a4.42,4.42,0,0,0-1.48,2.82h8.91a4.5,4.5,0,0,0-1.48-2.81,4.36,4.36,0,0,0-3-1.05A4.46,4.46,0,0,0,164.26,413.35Z"/><path class="cls-1" d="M196.54,410.31q2.07,2.07,2.07,6.14v10.62h-5.25v-9.79a5,5,0,0,0-.93-3.3,3.43,3.43,0,0,0-2.73-1.08,4.13,4.13,0,0,0-3.16,1.26,5.31,5.31,0,0,0-1.17,3.74v9.17h-5.25V408.52h5v2.17a7.08,7.08,0,0,1,2.59-1.81,8.9,8.9,0,0,1,3.39-.64A7.34,7.34,0,0,1,196.54,410.31Z"/><path class="cls-1" d="M215,426.18a5.29,5.29,0,0,1-1.9.87,9.16,9.16,0,0,1-2.37.3,7,7,0,0,1-5-1.69,6.59,6.59,0,0,1-1.76-5v-7.62H201.2v-4.14H204v-4.51h5.24v4.51h4.5v4.14h-4.5v7.55a2.53,2.53,0,0,0,.59,1.81,2.12,2.12,0,0,0,1.66.64,3.31,3.31,0,0,0,2.12-.69Z"/><path class="cls-1" d="M232.6,425.88a11.75,11.75,0,0,1-4.56-4.45,13.21,13.21,0,0,1,0-12.86,11.66,11.66,0,0,1,4.56-4.44,13.21,13.21,0,0,1,6.54-1.61,13.48,13.48,0,0,1,5.53,1.1,11.13,11.13,0,0,1,4.15,3.18l-3.49,3.3a7.46,7.46,0,0,0-5.92-2.82,7.69,7.69,0,0,0-3.9,1,7,7,0,0,0-2.67,2.74,8.81,8.81,0,0,0,0,8,6.84,6.84,0,0,0,2.67,2.74,7.69,7.69,0,0,0,3.9,1,7.44,7.44,0,0,0,5.92-2.86l3.49,3.3a10.84,10.84,0,0,1-4.16,3.21,13.48,13.48,0,0,1-5.55,1.1A13.25,13.25,0,0,1,232.6,425.88Z"/><path class="cls-1" d="M265.73,410.3c1.5,1.36,2.25,3.43,2.25,6.18v10.59h-4.91v-2.31q-1.47,2.6-5.51,2.59a8.22,8.22,0,0,1-3.61-.73,5.37,5.37,0,0,1-2.34-2,5.27,5.27,0,0,1-.81-2.89,4.89,4.89,0,0,1,1.9-4.07c1.27-1,3.22-1.49,5.87-1.49h4.17a3.44,3.44,0,0,0-1.05-2.7,4.5,4.5,0,0,0-3.12-1,8.68,8.68,0,0,0-2.84.47,7.61,7.61,0,0,0-2.37,1.25l-1.88-3.75a10.94,10.94,0,0,1,3.54-1.66,15.59,15.59,0,0,1,4.26-.59A9.25,9.25,0,0,1,265.73,410.3Zm-4.47,12.79a3.51,3.51,0,0,0,1.48-1.88v-1.9h-3.6c-2.15,0-3.23.73-3.23,2.18a2,2,0,0,0,.79,1.64,3.52,3.52,0,0,0,2.17.6A4.54,4.54,0,0,0,261.26,423.09Z"/><path class="cls-1" d="M280.27,408.93a9.17,9.17,0,0,1,3.67-.69v5c-.58,0-1-.07-1.17-.07a4.74,4.74,0,0,0-3.53,1.29,5.32,5.32,0,0,0-1.28,3.88v8.76h-5.24V408.52h5V411A5.78,5.78,0,0,1,280.27,408.93Z"/><path class="cls-1" d="M304.51,419.31H290.83a4.41,4.41,0,0,0,1.75,2.73,5.73,5.73,0,0,0,3.43,1,6.89,6.89,0,0,0,2.5-.43,6.16,6.16,0,0,0,2-1.37l2.79,3.11q-2.55,3-7.46,3a11.48,11.48,0,0,1-5.41-1.23,8.69,8.69,0,0,1-3.63-3.39,9.49,9.49,0,0,1-1.28-4.93,9.69,9.69,0,0,1,1.26-4.92,8.86,8.86,0,0,1,3.46-3.41,9.93,9.93,0,0,1,4.92-1.23,9.82,9.82,0,0,1,4.81,1.18,8.47,8.47,0,0,1,3.38,3.36,10.19,10.19,0,0,1,1.22,5.08C304.61,417.94,304.58,418.42,304.51,419.31Zm-12.26-6a4.42,4.42,0,0,0-1.48,2.82h8.9a4.49,4.49,0,0,0-1.47-2.81,4.38,4.38,0,0,0-3-1.05A4.43,4.43,0,0,0,292.25,413.35Z"/><path class="cls-1" d="M339.4,427.07l0-14.48-6.93,11.93H330L323.1,412.9v14.17H318V402.94h4.51l8.8,15,8.67-15h4.47l.07,24.13Z"/><path class="cls-1" d="M363.47,410.3c1.5,1.36,2.25,3.43,2.25,6.18v10.59h-4.91v-2.31q-1.47,2.6-5.51,2.59a8.32,8.32,0,0,1-3.62-.73,5.39,5.39,0,0,1-2.33-2,5.26,5.26,0,0,1-.8-2.89,4.89,4.89,0,0,1,1.89-4.07c1.27-1,3.22-1.49,5.87-1.49h4.16a3.44,3.44,0,0,0-1-2.7,4.5,4.5,0,0,0-3.12-1,8.63,8.63,0,0,0-2.84.47,7.61,7.61,0,0,0-2.37,1.25l-1.88-3.75a11,11,0,0,1,3.54-1.66,15.57,15.57,0,0,1,4.25-.59A9.25,9.25,0,0,1,363.47,410.3ZM359,423.09a3.4,3.4,0,0,0,1.47-1.88v-1.9h-3.59c-2.15,0-3.23.73-3.23,2.18a2,2,0,0,0,.79,1.64,3.52,3.52,0,0,0,2.17.6A4.54,4.54,0,0,0,359,423.09Z"/><path class="cls-1" d="M386.88,410.31q2.06,2.07,2.06,6.14v10.62H383.7v-9.79a5,5,0,0,0-.94-3.3A3.43,3.43,0,0,0,380,412.9a4.1,4.1,0,0,0-3.16,1.26,5.26,5.26,0,0,0-1.18,3.74v9.17h-5.24V408.52h5v2.17a7.08,7.08,0,0,1,2.59-1.81,9,9,0,0,1,3.4-.64A7.34,7.34,0,0,1,386.88,410.31Z"/><path class="cls-1" d="M407.43,410.3c1.5,1.36,2.25,3.43,2.25,6.18v10.59h-4.91v-2.31q-1.47,2.6-5.51,2.59a8.25,8.25,0,0,1-3.61-.73,5.37,5.37,0,0,1-2.34-2,5.26,5.26,0,0,1-.8-2.89,4.89,4.89,0,0,1,1.89-4.07q1.91-1.49,5.87-1.49h4.17a3.47,3.47,0,0,0-1-2.7,4.54,4.54,0,0,0-3.13-1,8.68,8.68,0,0,0-2.84.47,7.61,7.61,0,0,0-2.37,1.25l-1.88-3.75a11,11,0,0,1,3.54-1.66,15.57,15.57,0,0,1,4.25-.59A9.25,9.25,0,0,1,407.43,410.3ZM403,423.09a3.46,3.46,0,0,0,1.48-1.88v-1.9h-3.6c-2.15,0-3.23.73-3.23,2.18a2,2,0,0,0,.79,1.64,3.52,3.52,0,0,0,2.17.6A4.52,4.52,0,0,0,403,423.09Z"/><path class="cls-1" d="M433.27,408.52V424q0,5.1-2.58,7.59T423.13,434a18.32,18.32,0,0,1-5-.66,10.61,10.61,0,0,1-3.9-1.9l2.08-3.86a8.49,8.49,0,0,0,2.9,1.54,11.14,11.14,0,0,0,3.49.57,5.57,5.57,0,0,0,4-1.26,5.1,5.1,0,0,0,1.29-3.81v-.79a7.26,7.26,0,0,1-5.71,2.31,9.5,9.5,0,0,1-4.56-1.12,8.41,8.41,0,0,1-3.27-3.16,9.69,9.69,0,0,1,0-9.38,8.41,8.41,0,0,1,3.27-3.16,9.5,9.5,0,0,1,4.56-1.12,7.1,7.1,0,0,1,6,2.66v-2.38Zm-6.5,12a4.73,4.73,0,0,0,0-6.58,4.74,4.74,0,0,0-3.41-1.26,4.82,4.82,0,0,0-3.43,1.26,4.71,4.71,0,0,0,0,6.58,4.82,4.82,0,0,0,3.43,1.26A4.74,4.74,0,0,0,426.77,420.5Z"/><path class="cls-1" d="M455.76,419.31H442.08a4.37,4.37,0,0,0,1.75,2.73,5.73,5.73,0,0,0,3.43,1,6.93,6.93,0,0,0,2.5-.43,6,6,0,0,0,2-1.37l2.79,3.11q-2.55,3-7.46,3a11.51,11.51,0,0,1-5.41-1.23,8.75,8.75,0,0,1-3.63-3.39,9.59,9.59,0,0,1-1.28-4.93,9.69,9.69,0,0,1,1.26-4.92,8.93,8.93,0,0,1,3.46-3.41,9.94,9.94,0,0,1,4.93-1.23,9.82,9.82,0,0,1,4.81,1.18,8.38,8.38,0,0,1,3.37,3.36,10.19,10.19,0,0,1,1.23,5.08C455.86,417.94,455.82,418.42,455.76,419.31Zm-12.27-6a4.42,4.42,0,0,0-1.48,2.82h8.91a4.5,4.5,0,0,0-1.48-2.81,4.36,4.36,0,0,0-3-1.05A4.46,4.46,0,0,0,443.49,413.35Z"/><path class="cls-1" d="M487.91,410.3c1.33,1.36,2,3.42,2,6.15v10.62h-5.25v-9.79a5.12,5.12,0,0,0-.89-3.3,3.1,3.1,0,0,0-2.54-1.08,3.71,3.71,0,0,0-2.92,1.22,5.36,5.36,0,0,0-1.08,3.64v9.31H472v-9.79q0-4.38-3.42-4.38a3.68,3.68,0,0,0-2.9,1.22,5.42,5.42,0,0,0-1.07,3.64v9.31h-5.25V408.52h5v2.14a6.69,6.69,0,0,1,2.47-1.79,8.06,8.06,0,0,1,3.21-.63,7.53,7.53,0,0,1,3.46.78,6.16,6.16,0,0,1,2.49,2.26A7.36,7.36,0,0,1,478.8,409a8.64,8.64,0,0,1,3.71-.8A7.21,7.21,0,0,1,487.91,410.3Z"/><path class="cls-1" d="M512.43,419.31H498.75A4.37,4.37,0,0,0,500.5,422a5.68,5.68,0,0,0,3.42,1,7,7,0,0,0,2.51-.43,6.12,6.12,0,0,0,2-1.37l2.79,3.11q-2.55,3-7.46,3a11.51,11.51,0,0,1-5.41-1.23,8.75,8.75,0,0,1-3.63-3.39,9.59,9.59,0,0,1-1.28-4.93,9.69,9.69,0,0,1,1.26-4.92,8.93,8.93,0,0,1,3.46-3.41,9.94,9.94,0,0,1,4.93-1.23,9.76,9.76,0,0,1,4.8,1.18,8.41,8.41,0,0,1,3.38,3.36,10.19,10.19,0,0,1,1.23,5.08C512.53,417.94,512.49,418.42,512.43,419.31Zm-12.27-6a4.42,4.42,0,0,0-1.48,2.82h8.91a4.55,4.55,0,0,0-1.48-2.81,4.38,4.38,0,0,0-3-1.05A4.43,4.43,0,0,0,500.16,413.35Z"/><path class="cls-1" d="M532.44,410.31q2.07,2.07,2.07,6.14v10.62h-5.25v-9.79a4.94,4.94,0,0,0-.94-3.3,3.4,3.4,0,0,0-2.72-1.08,4.11,4.11,0,0,0-3.16,1.26,5.31,5.31,0,0,0-1.18,3.74v9.17H516V408.52h5v2.17a7,7,0,0,1,2.59-1.81,8.9,8.9,0,0,1,3.39-.64A7.34,7.34,0,0,1,532.44,410.31Z"/><path class="cls-1" d="M550.91,426.18a5.29,5.29,0,0,1-1.9.87,9.16,9.16,0,0,1-2.37.3,7,7,0,0,1-5-1.69,6.55,6.55,0,0,1-1.76-5v-7.62h-2.8v-4.14h2.8v-4.51h5.24v4.51h4.5v4.14h-4.5v7.55a2.53,2.53,0,0,0,.59,1.81,2.12,2.12,0,0,0,1.66.64,3.33,3.33,0,0,0,2.12-.69Z"/></g></g></svg>